<?xml version="1.0" encoding="UTF-8"?>
<!DOCTYPE svg PUBLIC "-//W3C//DTD SVG 1.1//EN" "http://www.w3.org/Graphics/SVG/1.1/DTD/svg11.dtd">
<svg xmlns="http://www.w3.org/2000/svg" version="1.1" width="1024px" height="1024px" style="shape-rendering:geometricPrecision; text-rendering:geometricPrecision; image-rendering:optimizeQuality; fill-rule:evenodd; clip-rule:evenodd" xmlns:xlink="http://www.w3.org/1999/xlink">
<g><path style="opacity:1" fill="#62b06c" d="M 580.5,71.5 C 586.942,73.1271 593.608,74.1271 600.5,74.5C 604.078,74.5488 607.411,75.2154 610.5,76.5C 617.584,78.7687 624.918,80.4354 632.5,81.5C 635.854,83.2576 639.521,84.2576 643.5,84.5C 645.515,85.9238 647.848,86.5905 650.5,86.5C 658.216,89.7387 666.216,92.4054 674.5,94.5C 675.791,94.2627 676.791,94.596 677.5,95.5C 678.78,96.9313 680.447,97.5979 682.5,97.5C 687.117,100.266 692.117,102.266 697.5,103.5C 701.856,106.068 706.522,108.068 711.5,109.5C 712.492,109.328 713.158,109.662 713.5,110.5C 717.416,113.29 721.749,115.29 726.5,116.5C 731.684,120.26 737.35,123.26 743.5,125.5C 745.336,127.588 747.669,128.921 750.5,129.5C 751.492,129.328 752.158,129.662 752.5,130.5C 753.659,132.25 755.326,133.25 757.5,133.5C 758.659,135.25 760.326,136.25 762.5,136.5C 764.629,138.95 767.296,140.617 770.5,141.5C 770.973,142.906 771.973,143.573 773.5,143.5C 773.973,144.906 774.973,145.573 776.5,145.5C 776.973,146.906 777.973,147.573 779.5,147.5C 783.806,151.321 788.473,154.655 793.5,157.5C 794.262,159.262 795.596,160.262 797.5,160.5C 798.262,162.262 799.596,163.262 801.5,163.5C 802.262,165.262 803.596,166.262 805.5,166.5C 806.585,168.587 808.251,169.92 810.5,170.5C 811.585,172.587 813.251,173.92 815.5,174.5C 819.931,179.54 824.931,183.873 830.5,187.5C 833.563,191.566 837.229,194.899 841.5,197.5C 842.5,197.833 843.167,198.5 843.5,199.5C 848.167,204.833 853.167,209.833 858.5,214.5C 861.101,218.771 864.434,222.437 868.5,225.5C 869.757,228.427 871.757,230.761 874.5,232.5C 877.359,236.878 880.692,240.878 884.5,244.5C 885.08,246.749 886.413,248.415 888.5,249.5C 889.433,252.37 891.1,254.704 893.5,256.5C 893.738,258.404 894.738,259.738 896.5,260.5C 896.738,262.404 897.738,263.738 899.5,264.5C 899.427,266.027 900.094,267.027 901.5,267.5C 901.427,269.027 902.094,270.027 903.5,270.5C 904.759,274.025 906.759,277.025 909.5,279.5C 909.427,281.027 910.094,282.027 911.5,282.5C 913,286.173 915,289.506 917.5,292.5C 917.75,294.674 918.75,296.341 920.5,297.5C 921.338,297.842 921.672,298.508 921.5,299.5C 922.079,302.331 923.412,304.664 925.5,306.5C 926.338,306.842 926.672,307.508 926.5,308.5C 930.325,317.484 934.659,326.151 939.5,334.5C 940.042,337.912 941.375,340.912 943.5,343.5C 944.338,343.842 944.672,344.508 944.5,345.5C 944.402,347.553 945.069,349.22 946.5,350.5C 946.707,353.241 947.707,355.574 949.5,357.5C 949.733,360.542 950.733,363.208 952.5,365.5C 953.404,366.209 953.737,367.209 953.5,368.5C 953.402,370.553 954.069,372.22 955.5,373.5C 955.259,375.898 955.926,377.898 957.5,379.5C 959.405,383.216 960.739,387.216 961.5,391.5C 961.41,394.152 962.076,396.485 963.5,398.5C 964.404,399.209 964.737,400.209 964.5,401.5C 964.41,404.152 965.076,406.485 966.5,408.5C 968.102,412.239 969.102,416.239 969.5,420.5C 969.42,423.781 970.087,426.781 971.5,429.5C 977.336,453.023 980.67,477.023 981.5,501.5C 981.678,526.177 981.344,550.843 980.5,575.5C 980.813,579.042 980.479,582.375 979.5,585.5C 978.194,590.616 977.527,595.949 977.5,601.5C 976.105,605.591 975.438,609.924 975.5,614.5C 975.5,614.833 975.5,615.167 975.5,615.5C 972.724,626.288 970.391,637.288 968.5,648.5C 966.076,654.526 964.409,660.859 963.5,667.5C 961.723,670.505 960.723,673.838 960.5,677.5C 958.926,679.102 958.259,681.102 958.5,683.5C 958.405,685.786 957.738,687.786 956.5,689.5C 954.733,691.792 953.733,694.458 953.5,697.5C 951.733,699.792 950.733,702.458 950.5,705.5C 949.069,706.78 948.402,708.447 948.5,710.5C 946.707,712.426 945.707,714.759 945.5,717.5C 943.707,719.426 942.707,721.759 942.5,724.5C 935.915,736.669 929.582,749.002 923.5,761.5C 921.75,762.659 920.75,764.326 920.5,766.5C 919.094,766.973 918.427,767.973 918.5,769.5C 915.084,773.323 912.418,777.657 910.5,782.5C 908.674,784.147 907.34,786.147 906.5,788.5C 905.094,788.973 904.427,789.973 904.5,791.5C 900.763,795.302 897.763,799.635 895.5,804.5C 893.016,806.8 891.016,809.467 889.5,812.5C 887.413,813.585 886.08,815.251 885.5,817.5C 883.738,818.262 882.738,819.596 882.5,821.5C 882.5,822.167 882.167,822.5 881.5,822.5C 879.413,823.585 878.08,825.251 877.5,827.5C 875.086,828.911 873.419,830.911 872.5,833.5C 872.5,834.167 872.167,834.5 871.5,834.5C 869.086,835.911 867.419,837.911 866.5,840.5C 862.766,843.231 859.766,846.564 857.5,850.5C 857.5,851.167 857.167,851.5 856.5,851.5C 847.5,859.833 838.833,868.5 830.5,877.5C 830.5,878.167 830.167,878.5 829.5,878.5C 825.9,880.43 822.9,883.097 820.5,886.5C 820.5,887.167 820.167,887.5 819.5,887.5C 816.911,888.419 814.911,890.086 813.5,892.5C 809.273,894.785 805.607,897.785 802.5,901.5C 797.929,903.738 793.929,906.738 790.5,910.5C 788.596,910.738 787.262,911.738 786.5,913.5C 784.973,913.427 783.973,914.094 783.5,915.5C 777.976,918.092 772.976,921.425 768.5,925.5C 766.973,925.427 765.973,926.094 765.5,927.5C 762.296,928.383 759.629,930.05 757.5,932.5C 755.326,932.75 753.659,933.75 752.5,935.5C 749.669,936.079 747.336,937.412 745.5,939.5C 745.158,940.338 744.492,940.672 743.5,940.5C 740.008,941.41 737.008,943.076 734.5,945.5C 732.819,947.008 730.819,948.008 728.5,948.5C 725.515,949.326 722.849,950.659 720.5,952.5C 715.277,956.319 709.611,957.319 703.5,955.5C 701.777,953.782 699.777,952.449 697.5,951.5C 696.92,949.251 695.587,947.585 693.5,946.5C 691.6,942.268 688.933,938.601 685.5,935.5C 685.262,933.596 684.262,932.262 682.5,931.5C 682.262,929.596 681.262,928.262 679.5,927.5C 677.984,924.467 675.984,921.8 673.5,919.5C 673.262,917.596 672.262,916.262 670.5,915.5C 670.262,913.596 669.262,912.262 667.5,911.5C 667.262,909.596 666.262,908.262 664.5,907.5C 664.262,905.596 663.262,904.262 661.5,903.5C 661.262,901.596 660.262,900.262 658.5,899.5C 658.262,897.596 657.262,896.262 655.5,895.5C 655.262,893.596 654.262,892.262 652.5,891.5C 652.262,889.596 651.262,888.262 649.5,887.5C 649.262,885.596 648.262,884.262 646.5,883.5C 646.262,881.596 645.262,880.262 643.5,879.5C 643.262,877.596 642.262,876.262 640.5,875.5C 640.262,873.596 639.262,872.262 637.5,871.5C 637.262,869.596 636.262,868.262 634.5,867.5C 634.262,865.596 633.262,864.262 631.5,863.5C 630.471,860.109 628.471,857.443 625.5,855.5C 622.564,849.959 618.897,844.959 614.5,840.5C 612.262,835.929 609.262,831.929 605.5,828.5C 605.262,826.596 604.262,825.262 602.5,824.5C 602.262,822.596 601.262,821.262 599.5,820.5C 597.6,816.268 594.933,812.601 591.5,809.5C 589.262,804.929 586.262,800.929 582.5,797.5C 582.262,795.596 581.262,794.262 579.5,793.5C 579.262,791.596 578.262,790.262 576.5,789.5C 576.262,787.596 575.262,786.262 573.5,785.5C 573.262,783.596 572.262,782.262 570.5,781.5C 570.262,779.596 569.262,778.262 567.5,777.5C 567.262,775.596 566.262,774.262 564.5,773.5C 564.262,771.596 563.262,770.262 561.5,769.5C 559.6,765.268 556.933,761.601 553.5,758.5C 552.471,755.109 550.471,752.443 547.5,750.5C 546.471,747.109 544.471,744.443 541.5,742.5C 541.262,740.596 540.262,739.262 538.5,738.5C 538.262,736.596 537.262,735.262 535.5,734.5C 535.262,732.596 534.262,731.262 532.5,730.5C 530.167,726.167 526.833,722.833 522.5,720.5C 519.773,717.395 516.273,716.062 512,716.5C 507.205,716.152 503.371,717.818 500.5,721.5C 500.5,722.167 500.167,722.5 499.5,722.5C 495.833,720.833 494.833,721.833 496.5,725.5C 496.5,726.167 496.167,726.5 495.5,726.5C 493.413,727.585 492.08,729.251 491.5,731.5C 489.738,732.262 488.738,733.596 488.5,735.5C 486.1,737.296 484.433,739.63 483.5,742.5C 481.738,743.262 480.738,744.596 480.5,746.5C 478.738,747.262 477.738,748.596 477.5,750.5C 475.738,751.262 474.738,752.596 474.5,754.5C 472.738,755.262 471.738,756.596 471.5,758.5C 468.067,761.601 465.4,765.268 463.5,769.5C 461.738,770.262 460.738,771.596 460.5,773.5C 458.738,774.262 457.738,775.596 457.5,777.5C 455.738,778.262 454.738,779.596 454.5,781.5C 450.103,785.959 446.436,790.959 443.5,796.5C 441.738,797.262 440.738,798.596 440.5,800.5C 438.738,801.262 437.738,802.596 437.5,804.5C 435.738,805.262 434.738,806.596 434.5,808.5C 432.738,809.262 431.738,810.596 431.5,812.5C 429.016,814.8 427.016,817.467 425.5,820.5C 423.738,821.262 422.738,822.596 422.5,824.5C 418.103,828.959 414.436,833.959 411.5,839.5C 408.529,841.443 406.529,844.109 405.5,847.5C 403.738,848.262 402.738,849.596 402.5,851.5C 400.738,852.262 399.738,853.596 399.5,855.5C 397.016,857.8 395.016,860.467 393.5,863.5C 391.738,864.262 390.738,865.596 390.5,867.5C 388.738,868.262 387.738,869.596 387.5,871.5C 384.529,873.443 382.529,876.109 381.5,879.5C 379.738,880.262 378.738,881.596 378.5,883.5C 376.738,884.262 375.738,885.596 375.5,887.5C 373.738,888.262 372.738,889.596 372.5,891.5C 370.738,892.262 369.738,893.596 369.5,895.5C 367.738,896.262 366.738,897.596 366.5,899.5C 364.738,900.262 363.738,901.596 363.5,903.5C 360.529,905.443 358.529,908.109 357.5,911.5C 355.738,912.262 354.738,913.596 354.5,915.5C 352.738,916.262 351.738,917.596 351.5,919.5C 349.738,920.262 348.738,921.596 348.5,923.5C 346.738,924.262 345.738,925.596 345.5,927.5C 342.529,929.443 340.529,932.109 339.5,935.5C 337.413,936.585 336.08,938.251 335.5,940.5C 331.51,945.126 327.51,949.793 323.5,954.5C 321.214,954.595 319.214,955.262 317.5,956.5C 314.941,956.802 312.607,956.468 310.5,955.5C 306.787,953.315 302.787,951.648 298.5,950.5C 296.847,950.34 295.514,949.674 294.5,948.5C 293.486,947.326 292.153,946.66 290.5,946.5C 287.322,943.742 283.655,941.742 279.5,940.5C 278.508,940.672 277.842,940.338 277.5,939.5C 276.341,937.75 274.674,936.75 272.5,936.5C 271.341,934.75 269.674,933.75 267.5,933.5C 266.341,931.75 264.674,930.75 262.5,930.5C 260.371,928.05 257.704,926.383 254.5,925.5C 254.027,924.094 253.027,923.427 251.5,923.5C 251.027,922.094 250.027,921.427 248.5,921.5C 246.704,919.1 244.37,917.433 241.5,916.5C 241.027,915.094 240.027,914.427 238.5,914.5C 237.738,912.738 236.404,911.738 234.5,911.5C 233.738,909.738 232.404,908.738 230.5,908.5C 229.738,906.738 228.404,905.738 226.5,905.5C 225.738,903.738 224.404,902.738 222.5,902.5C 218.878,898.692 214.878,895.359 210.5,892.5C 209.089,890.086 207.089,888.419 204.5,887.5C 201.769,883.766 198.436,880.766 194.5,878.5C 186.167,869.5 177.5,860.833 168.5,852.5C 168.5,851.167 167.833,850.5 166.5,850.5C 164.906,847.236 162.573,844.569 159.5,842.5C 158.5,842.167 157.833,841.5 157.5,840.5C 156.243,837.573 154.243,835.239 151.5,833.5C 150.92,831.251 149.587,829.585 147.5,828.5C 145.312,824.793 142.645,821.46 139.5,818.5C 139.262,816.596 138.262,815.262 136.5,814.5C 136.262,812.596 135.262,811.262 133.5,810.5C 133.262,808.596 132.262,807.262 130.5,806.5C 130.573,804.973 129.906,803.973 128.5,803.5C 126.938,799.608 124.605,796.275 121.5,793.5C 121.573,791.973 120.906,790.973 119.5,790.5C 119.573,788.973 118.906,787.973 117.5,787.5C 117.573,785.973 116.906,784.973 115.5,784.5C 114.617,781.296 112.95,778.629 110.5,776.5C 110.25,774.326 109.25,772.659 107.5,771.5C 107.25,769.326 106.25,767.659 104.5,766.5C 103.921,763.669 102.588,761.336 100.5,759.5C 99.5903,756.008 97.9236,753.008 95.5,750.5C 93.3256,747.485 91.6589,744.151 90.5,740.5C 90.0075,738.181 89.0075,736.181 87.5,734.5C 86.6618,734.158 86.3284,733.492 86.5,732.5C 85.2895,727.749 83.2895,723.416 80.5,719.5C 79.5975,715.111 77.9308,711.111 75.5,707.5C 75.5979,705.447 74.9313,703.78 73.5,702.5C 73.5979,700.447 72.9313,698.78 71.5,697.5C 70.596,696.791 70.2627,695.791 70.5,694.5C 68.7387,687.216 66.4054,680.216 63.5,673.5C 62.596,672.791 62.2627,671.791 62.5,670.5C 62.5905,667.848 61.9238,665.515 60.5,663.5C 59.5655,662.432 59.2322,661.099 59.5,659.5C 58.7683,653.906 57.435,648.573 55.5,643.5C 54.5655,642.432 54.2322,641.099 54.5,639.5C 54.5797,636.219 53.913,633.219 52.5,630.5C 51.2154,627.411 50.5488,624.078 50.5,620.5C 50.5701,616.575 49.9034,612.909 48.5,609.5C 48.5621,604.924 47.8955,600.591 46.5,596.5C 45.5318,594.393 45.1984,592.059 45.5,589.5C 44.8797,577.321 43.8797,565.321 42.5,553.5C 39.9425,514.425 42.9425,475.758 51.5,437.5C 52.913,434.781 53.5797,431.781 53.5,428.5C 53.2155,426.585 53.5489,424.919 54.5,423.5C 56.0395,421.162 56.7062,418.495 56.5,415.5C 56.5651,412.572 57.2318,409.905 58.5,407.5C 59.9238,405.485 60.5905,403.152 60.5,400.5C 60.2627,399.209 60.596,398.209 61.5,397.5C 62.9238,395.485 63.5905,393.152 63.5,390.5C 65.2613,383.216 67.5946,376.216 70.5,369.5C 71.9313,368.22 72.5979,366.553 72.5,364.5C 75.2656,359.883 77.2656,354.883 78.5,349.5C 81.3507,344.459 83.684,339.125 85.5,333.5C 85.6596,331.847 86.3263,330.514 87.5,329.5C 90.6745,324.484 93.3412,319.151 95.5,313.5C 95.3284,312.508 95.6618,311.842 96.5,311.5C 98.588,309.664 99.9213,307.331 100.5,304.5C 100.328,303.508 100.662,302.842 101.5,302.5C 103.25,301.341 104.25,299.674 104.5,297.5C 106.25,296.341 107.25,294.674 107.5,292.5C 109.25,291.341 110.25,289.674 110.5,287.5C 112.95,285.371 114.617,282.704 115.5,279.5C 116.906,279.027 117.573,278.027 117.5,276.5C 120.605,273.725 122.938,270.392 124.5,266.5C 126.9,264.704 128.567,262.37 129.5,259.5C 131.262,258.738 132.262,257.404 132.5,255.5C 137.874,249.46 142.874,243.126 147.5,236.5C 150.243,234.761 152.243,232.427 153.5,229.5C 168.833,213.5 184.5,197.833 200.5,182.5C 205.548,178.971 210.215,174.971 214.5,170.5C 218.051,168.889 221.051,166.556 223.5,163.5C 229.862,159.654 235.862,155.321 241.5,150.5C 244.37,149.567 246.704,147.9 248.5,145.5C 253.709,143.281 258.376,140.281 262.5,136.5C 262.842,135.662 263.508,135.328 264.5,135.5C 266.027,135.573 267.027,134.906 267.5,133.5C 273.165,131.003 278.498,128.003 283.5,124.5C 293.151,120.341 302.484,115.675 311.5,110.5C 314.241,110.293 316.574,109.293 318.5,107.5C 318.842,106.662 319.508,106.328 320.5,106.5C 324.137,105.737 327.47,104.403 330.5,102.5C 332.553,102.598 334.22,101.931 335.5,100.5C 340.223,99.6303 344.556,97.9637 348.5,95.5C 352.216,93.5947 356.216,92.2613 360.5,91.5C 363.785,91.0719 366.785,90.0719 369.5,88.5C 372.152,88.5905 374.485,87.9238 376.5,86.5C 378.515,85.0762 380.848,84.4095 383.5,84.5C 388.806,83.9474 393.806,82.6141 398.5,80.5C 458.589,65.6908 519.255,62.6908 580.5,71.5 Z M 546.5,282.5 C 549.946,283.687 553.613,284.354 557.5,284.5C 560.273,285.657 563.273,286.324 566.5,286.5C 568.515,287.924 570.848,288.59 573.5,288.5C 575.515,289.924 577.848,290.59 580.5,290.5C 585.537,293.071 590.871,295.071 596.5,296.5C 599.088,298.625 602.088,299.958 605.5,300.5C 608.515,302.674 611.849,304.341 615.5,305.5C 615.842,306.338 616.508,306.672 617.5,306.5C 618.659,308.25 620.326,309.25 622.5,309.5C 623.659,311.25 625.326,312.25 627.5,312.5C 628.659,314.25 630.326,315.25 632.5,315.5C 634.147,317.326 636.147,318.66 638.5,319.5C 638.973,320.906 639.973,321.573 641.5,321.5C 643.8,323.984 646.467,325.984 649.5,327.5C 650.585,329.587 652.251,330.92 654.5,331.5C 655.911,333.914 657.911,335.581 660.5,336.5C 667.833,344.5 675.5,352.167 683.5,359.5C 684.757,362.427 686.757,364.761 689.5,366.5C 691.738,371.071 694.738,375.071 698.5,378.5C 698.427,380.027 699.094,381.027 700.5,381.5C 700.427,383.027 701.094,384.027 702.5,384.5C 702.427,386.027 703.094,387.027 704.5,387.5C 704.75,389.674 705.75,391.341 707.5,392.5C 708.079,395.331 709.412,397.664 711.5,399.5C 711.328,400.492 711.662,401.158 712.5,401.5C 713.659,405.151 715.326,408.485 717.5,411.5C 717.328,412.492 717.662,413.158 718.5,413.5C 718.707,416.241 719.707,418.574 721.5,420.5C 722.263,424.137 723.597,427.47 725.5,430.5C 726.261,434.784 727.595,438.784 729.5,442.5C 729.263,443.791 729.596,444.791 730.5,445.5C 730.41,448.152 731.076,450.485 732.5,452.5C 732.42,455.781 733.087,458.781 734.5,461.5C 737.056,478.397 738.389,495.397 738.5,512.5C 737.414,526.191 735.747,539.857 733.5,553.5C 731.898,557.239 730.898,561.239 730.5,565.5C 729.076,567.515 728.41,569.848 728.5,572.5C 727.262,574.214 726.595,576.214 726.5,578.5C 724.733,580.792 723.733,583.458 723.5,586.5C 722.069,587.78 721.402,589.447 721.5,591.5C 720.069,592.78 719.402,594.447 719.5,596.5C 718.662,596.842 718.328,597.508 718.5,598.5C 715.326,603.516 712.659,608.849 710.5,614.5C 708.412,616.336 707.079,618.669 706.5,621.5C 704.05,623.629 702.383,626.296 701.5,629.5C 700.094,629.973 699.427,630.973 699.5,632.5C 697.1,634.296 695.433,636.63 694.5,639.5C 692.016,641.8 690.016,644.467 688.5,647.5C 684.124,650.874 680.458,654.874 677.5,659.5C 676.504,659.414 675.671,659.748 675,660.5C 673.296,658.627 671.463,656.96 669.5,655.5C 669.262,653.596 668.262,652.262 666.5,651.5C 666.573,649.973 665.906,648.973 664.5,648.5C 664.573,646.973 663.906,645.973 662.5,645.5C 662.262,643.596 661.262,642.262 659.5,641.5C 659.573,639.973 658.906,638.973 657.5,638.5C 654.655,633.473 651.321,628.806 647.5,624.5C 647.573,622.973 646.906,621.973 645.5,621.5C 643.6,617.268 640.933,613.601 637.5,610.5C 637.573,608.973 636.906,607.973 635.5,607.5C 634.567,604.63 632.9,602.296 630.5,600.5C 628.938,596.608 626.605,593.275 623.5,590.5C 623.262,588.596 622.262,587.262 620.5,586.5C 620.573,584.973 619.906,583.973 618.5,583.5C 617.567,580.63 615.9,578.296 613.5,576.5C 613.573,574.973 612.906,573.973 611.5,573.5C 610.567,570.63 608.9,568.296 606.5,566.5C 604.938,562.608 602.605,559.275 599.5,556.5C 598.567,553.63 596.9,551.296 594.5,549.5C 594.573,547.973 593.906,546.973 592.5,546.5C 592.262,544.596 591.262,543.262 589.5,542.5C 589.573,540.973 588.906,539.973 587.5,539.5C 586.567,536.63 584.9,534.296 582.5,532.5C 581.567,529.63 579.9,527.296 577.5,525.5C 577.573,523.973 576.906,522.973 575.5,522.5C 574.567,519.63 572.9,517.296 570.5,515.5C 570.573,513.973 569.906,512.973 568.5,512.5C 567.567,509.63 565.9,507.296 563.5,505.5C 559.233,497.963 554.233,490.963 548.5,484.5C 548.573,482.973 547.906,481.973 546.5,481.5C 546.573,479.973 545.906,478.973 544.5,478.5C 544.262,476.596 543.262,475.262 541.5,474.5C 541.573,472.973 540.906,471.973 539.5,471.5C 539.262,469.596 538.262,468.262 536.5,467.5C 536.573,465.973 535.906,464.973 534.5,464.5C 534.262,462.596 533.262,461.262 531.5,460.5C 531.573,458.973 530.906,457.973 529.5,457.5C 529.262,455.596 528.262,454.262 526.5,453.5C 526.262,451.596 525.262,450.262 523.5,449.5C 522.274,447.124 520.274,445.624 517.5,445C 514.5,444.333 511.5,444.333 508.5,445C 507.584,445.278 506.918,445.778 506.5,446.5C 504.205,447.136 502.539,448.469 501.5,450.5C 499.738,451.262 498.738,452.596 498.5,454.5C 497.206,455.29 496.039,456.29 495,457.5C 491.312,462.218 488.145,467.218 485.5,472.5C 483.738,473.262 482.738,474.596 482.5,476.5C 481.094,476.973 480.427,477.973 480.5,479.5C 478.1,481.296 476.433,483.63 475.5,486.5C 473.1,488.296 471.433,490.63 470.5,493.5C 468.1,495.296 466.433,497.63 465.5,500.5C 463.1,502.296 461.433,504.63 460.5,507.5C 458.1,509.296 456.433,511.63 455.5,514.5C 453.1,516.296 451.433,518.63 450.5,521.5C 447.395,524.275 445.062,527.608 443.5,531.5C 442.094,531.973 441.427,532.973 441.5,534.5C 439.738,535.262 438.738,536.596 438.5,538.5C 435.395,541.275 433.062,544.608 431.5,548.5C 429.1,550.296 427.433,552.63 426.5,555.5C 424.1,557.296 422.433,559.63 421.5,562.5C 420.094,562.973 419.427,563.973 419.5,565.5C 417.1,567.296 415.433,569.63 414.5,572.5C 412.1,574.296 410.433,576.63 409.5,579.5C 408.094,579.973 407.427,580.973 407.5,582.5C 406.094,582.973 405.427,583.973 405.5,585.5C 401.679,589.806 398.345,594.473 395.5,599.5C 392.395,602.275 390.062,605.608 388.5,609.5C 386.1,611.296 384.433,613.63 383.5,616.5C 379.679,620.806 376.345,625.473 373.5,630.5C 369.679,634.806 366.345,639.473 363.5,644.5C 362.094,644.973 361.427,645.973 361.5,647.5C 357.891,651.72 354.058,655.72 350,659.5C 346.679,657.012 343.512,654.345 340.5,651.5C 339.92,649.251 338.587,647.585 336.5,646.5C 333.212,641.214 329.546,636.214 325.5,631.5C 325.573,629.973 324.906,628.973 323.5,628.5C 323.573,626.973 322.906,625.973 321.5,625.5C 320,621.827 318,618.494 315.5,615.5C 313.341,609.849 310.674,604.516 307.5,599.5C 307.293,596.759 306.293,594.426 304.5,592.5C 303.737,588.863 302.403,585.53 300.5,582.5C 299.739,578.216 298.405,574.216 296.5,570.5C 296.59,567.848 295.924,565.515 294.5,563.5C 294.768,561.901 294.434,560.568 293.5,559.5C 293.58,556.219 292.913,553.219 291.5,550.5C 288.128,530.651 286.795,510.651 287.5,490.5C 288.747,484.37 289.414,478.037 289.5,471.5C 290.903,468.091 291.57,464.425 291.5,460.5C 293.946,453.054 295.946,445.387 297.5,437.5C 299.267,435.208 300.267,432.542 300.5,429.5C 301.404,428.791 301.737,427.791 301.5,426.5C 303.931,422.889 305.597,418.889 306.5,414.5C 307.338,414.158 307.672,413.492 307.5,412.5C 308.674,411.486 309.34,410.153 309.5,408.5C 311.341,406.151 312.674,403.485 313.5,400.5C 315.588,398.664 316.921,396.331 317.5,393.5C 319.25,392.341 320.25,390.674 320.5,388.5C 322.326,386.853 323.66,384.853 324.5,382.5C 325.906,382.027 326.573,381.027 326.5,379.5C 328.9,377.704 330.567,375.37 331.5,372.5C 333.587,371.415 334.92,369.749 335.5,367.5C 337.914,366.089 339.581,364.089 340.5,361.5C 343.903,359.1 346.57,356.1 348.5,352.5C 349.5,352.167 350.167,351.5 350.5,350.5C 352.5,349.167 354.167,347.5 355.5,345.5C 356.833,344.833 357.833,343.833 358.5,342.5C 359.833,342.5 360.5,341.833 360.5,340.5C 363.427,339.243 365.761,337.243 367.5,334.5C 370.089,333.581 372.089,331.914 373.5,329.5C 375.749,328.92 377.415,327.587 378.5,325.5C 380.027,325.573 381.027,324.906 381.5,323.5C 383.404,323.262 384.738,322.262 385.5,320.5C 387.027,320.573 388.027,319.906 388.5,318.5C 391.198,318.155 393.198,316.822 394.5,314.5C 396.674,314.25 398.341,313.25 399.5,311.5C 402.331,310.921 404.664,309.588 406.5,307.5C 408.153,307.34 409.486,306.674 410.5,305.5C 414.818,304.008 418.818,302.008 422.5,299.5C 423.492,299.672 424.158,299.338 424.5,298.5C 426.553,298.598 428.22,297.931 429.5,296.5C 431.553,296.598 433.22,295.931 434.5,294.5C 437.542,294.267 440.208,293.267 442.5,291.5C 446.162,291.277 449.495,290.277 452.5,288.5C 455.152,288.59 457.485,287.924 459.5,286.5C 468.338,285.065 477.005,283.398 485.5,281.5C 505.87,279.949 526.203,280.282 546.5,282.5 Z"/></g>
<g><path style="opacity:0.412" fill="#1d221d" d="M 580.5,71.5 C 587.422,71.6557 594.089,72.6557 600.5,74.5C 593.608,74.1271 586.942,73.1271 580.5,71.5 Z"/></g>
<g><path style="opacity:0.412" fill="#1c221d" d="M 610.5,76.5 C 618.149,77.2478 625.482,78.9144 632.5,81.5C 624.918,80.4354 617.584,78.7687 610.5,76.5 Z"/></g>
<g><path style="opacity:0.412" fill="#222b22" d="M 398.5,80.5 C 393.806,82.6141 388.806,83.9474 383.5,84.5C 388.194,82.3859 393.194,81.0526 398.5,80.5 Z"/></g>
<g><path style="opacity:0.412" fill="#1b1f1b" d="M 632.5,81.5 C 636.479,81.7424 640.146,82.7424 643.5,84.5C 639.521,84.2576 635.854,83.2576 632.5,81.5 Z"/></g>
<g><path style="opacity:0.412" fill="#1b1f1b" d="M 643.5,84.5 C 646.152,84.4095 648.485,85.0762 650.5,86.5C 647.848,86.5905 645.515,85.9238 643.5,84.5 Z"/></g>
<g><path style="opacity:0.412" fill="#1a1e1b" d="M 376.5,86.5 C 374.485,87.9238 372.152,88.5905 369.5,88.5C 371.515,87.0762 373.848,86.4095 376.5,86.5 Z"/></g>
<g><path style="opacity:0.412" fill="#1c211d" d="M 650.5,86.5 C 658.915,88.1937 666.915,90.8604 674.5,94.5C 666.216,92.4054 658.216,89.7387 650.5,86.5 Z"/></g>
<g><path style="opacity:0.412" fill="#1a1c1a" d="M 369.5,88.5 C 366.785,90.0719 363.785,91.0719 360.5,91.5C 363.084,89.5275 366.084,88.5275 369.5,88.5 Z"/></g>
<g><path style="opacity:0.412" fill="#1b1f1b" d="M 677.5,95.5 C 679.553,95.4021 681.22,96.0687 682.5,97.5C 680.447,97.5979 678.78,96.9313 677.5,95.5 Z"/></g>
<g><path style="opacity:0.412" fill="#1b201c" d="M 348.5,95.5 C 344.556,97.9637 340.223,99.6303 335.5,100.5C 339.444,98.0363 343.777,96.3697 348.5,95.5 Z"/></g>
<g><path style="opacity:0.412" fill="#1b1f1b" d="M 335.5,100.5 C 334.22,101.931 332.553,102.598 330.5,102.5C 331.78,101.069 333.447,100.402 335.5,100.5 Z"/></g>
<g><path style="opacity:0.412" fill="#1c201c" d="M 682.5,97.5 C 687.895,98.7042 692.895,100.704 697.5,103.5C 692.117,102.266 687.117,100.266 682.5,97.5 Z"/></g>
<g><path style="opacity:0.412" fill="#1a1d1a" d="M 330.5,102.5 C 327.47,104.403 324.137,105.737 320.5,106.5C 323.37,104.206 326.703,102.872 330.5,102.5 Z"/></g>
<g><path style="opacity:0.412" fill="#1b1f1b" d="M 697.5,103.5 C 702.642,104.542 707.309,106.542 711.5,109.5C 706.522,108.068 701.856,106.068 697.5,103.5 Z"/></g>
<g><path style="opacity:0.412" fill="#1a1d1a" d="M 318.5,107.5 C 316.574,109.293 314.241,110.293 311.5,110.5C 313.426,108.707 315.759,107.707 318.5,107.5 Z"/></g>
<g><path style="opacity:0.412" fill="#1b1f1b" d="M 713.5,110.5 C 718.251,111.71 722.584,113.71 726.5,116.5C 721.749,115.29 717.416,113.29 713.5,110.5 Z"/></g>
<g><path style="opacity:0.412" fill="#1c201c" d="M 311.5,110.5 C 302.484,115.675 293.151,120.341 283.5,124.5C 292.248,118.793 301.581,114.126 311.5,110.5 Z"/></g>
<g><path style="opacity:0.412" fill="#1b1e1b" d="M 726.5,116.5 C 732.65,118.74 738.316,121.74 743.5,125.5C 737.35,123.26 731.684,120.26 726.5,116.5 Z"/></g>
<g><path style="opacity:0.412" fill="#1c211d" d="M 283.5,124.5 C 278.498,128.003 273.165,131.003 267.5,133.5C 272.177,129.491 277.511,126.491 283.5,124.5 Z"/></g>
<g><path style="opacity:0.412" fill="#191b19" d="M 743.5,125.5 C 746.331,126.079 748.664,127.412 750.5,129.5C 747.669,128.921 745.336,127.588 743.5,125.5 Z"/></g>
<g><path style="opacity:0.412" fill="#191b19" d="M 752.5,130.5 C 754.674,130.75 756.341,131.75 757.5,133.5C 755.326,133.25 753.659,132.25 752.5,130.5 Z"/></g>
<g><path style="opacity:0.545" fill="#1c221d" d="M 267.5,133.5 C 267.027,134.906 266.027,135.573 264.5,135.5C 264.973,134.094 265.973,133.427 267.5,133.5 Z"/></g>
<g><path style="opacity:0.412" fill="#191b19" d="M 757.5,133.5 C 759.674,133.75 761.341,134.75 762.5,136.5C 760.326,136.25 758.659,135.25 757.5,133.5 Z"/></g>
<g><path style="opacity:0.412" fill="#1b201c" d="M 262.5,136.5 C 258.376,140.281 253.709,143.281 248.5,145.5C 252.624,141.719 257.291,138.719 262.5,136.5 Z"/></g>
<g><path style="opacity:0.424" fill="#1a1c1a" d="M 762.5,136.5 C 765.704,137.383 768.371,139.05 770.5,141.5C 767.296,140.617 764.629,138.95 762.5,136.5 Z"/></g>
<g><path style="opacity:0.412" fill="#181a18" d="M 770.5,141.5 C 772.027,141.427 773.027,142.094 773.5,143.5C 771.973,143.573 770.973,142.906 770.5,141.5 Z"/></g>
<g><path style="opacity:0.412" fill="#181918" d="M 773.5,143.5 C 775.027,143.427 776.027,144.094 776.5,145.5C 774.973,145.573 773.973,144.906 773.5,143.5 Z"/></g>
<g><path style="opacity:0.412" fill="#181a18" d="M 776.5,145.5 C 778.027,145.427 779.027,146.094 779.5,147.5C 777.973,147.573 776.973,146.906 776.5,145.5 Z"/></g>
<g><path style="opacity:0.424" fill="#1a1e1b" d="M 248.5,145.5 C 246.704,147.9 244.37,149.567 241.5,150.5C 243.296,148.1 245.63,146.433 248.5,145.5 Z"/></g>
<g><path style="opacity:0.412" fill="#1a1e1b" d="M 779.5,147.5 C 784.88,149.855 789.546,153.188 793.5,157.5C 788.473,154.655 783.806,151.321 779.5,147.5 Z"/></g>
<g><path style="opacity:0.412" fill="#1a1d1a" d="M 241.5,150.5 C 235.862,155.321 229.862,159.654 223.5,163.5C 228.785,158.19 234.785,153.856 241.5,150.5 Z"/></g>
<g><path style="opacity:0.412" fill="#1a1d1a" d="M 793.5,157.5 C 795.404,157.738 796.738,158.738 797.5,160.5C 795.596,160.262 794.262,159.262 793.5,157.5 Z"/></g>
<g><path style="opacity:0.412" fill="#1c211c" d="M 797.5,160.5 C 799.404,160.738 800.738,161.738 801.5,163.5C 799.596,163.262 798.262,162.262 797.5,160.5 Z"/></g>
<g><path style="opacity:0.412" fill="#1a1d1a" d="M 801.5,163.5 C 803.404,163.738 804.738,164.738 805.5,166.5C 803.596,166.262 802.262,165.262 801.5,163.5 Z"/></g>
<g><path style="opacity:0.412" fill="#1b1f1b" d="M 805.5,166.5 C 807.749,167.08 809.415,168.413 810.5,170.5C 808.251,169.92 806.585,168.587 805.5,166.5 Z"/></g>
<g><path style="opacity:0.424" fill="#1d221d" d="M 223.5,163.5 C 221.051,166.556 218.051,168.889 214.5,170.5C 216.949,167.444 219.949,165.111 223.5,163.5 Z"/></g>
<g><path style="opacity:0.412" fill="#1f2720" d="M 214.5,170.5 C 210.215,174.971 205.548,178.971 200.5,182.5C 204.413,177.555 209.08,173.555 214.5,170.5 Z"/></g>
<g><path style="opacity:0.412" fill="#1a1d1a" d="M 810.5,170.5 C 812.749,171.08 814.415,172.413 815.5,174.5C 813.251,173.92 811.585,172.587 810.5,170.5 Z"/></g>
<g><path style="opacity:0.412" fill="#1c211d" d="M 815.5,174.5 C 821.069,178.127 826.069,182.46 830.5,187.5C 824.931,183.873 819.931,179.54 815.5,174.5 Z"/></g>
<g><path style="opacity:0.412" fill="#1c201c" d="M 830.5,187.5 C 834.771,190.101 838.437,193.434 841.5,197.5C 837.229,194.899 833.563,191.566 830.5,187.5 Z"/></g>
<g><path style="opacity:0.576" fill="#1e251f" d="M 200.5,182.5 C 184.5,197.833 168.833,213.5 153.5,229.5C 164.873,215.62 177.207,202.454 190.5,190C 193.729,187.259 197.062,184.759 200.5,182.5 Z"/></g>
<g><path style="opacity:0.412" fill="#171717" d="M 843.5,199.5 C 849.5,203.5 854.5,208.5 858.5,214.5C 853.167,209.833 848.167,204.833 843.5,199.5 Z"/></g>
<g><path style="opacity:0.424" fill="#1e251f" d="M 858.5,214.5 C 862.566,217.563 865.899,221.229 868.5,225.5C 864.434,222.437 861.101,218.771 858.5,214.5 Z"/></g>
<g><path style="opacity:0.431" fill="#1c211c" d="M 868.5,225.5 C 871.243,227.239 873.243,229.573 874.5,232.5C 871.757,230.761 869.757,228.427 868.5,225.5 Z"/></g>
<g><path style="opacity:0.455" fill="#1d221d" d="M 153.5,229.5 C 152.243,232.427 150.243,234.761 147.5,236.5C 148.757,233.573 150.757,231.239 153.5,229.5 Z"/></g>
<g><path style="opacity:0.412" fill="#1c211c" d="M 874.5,232.5 C 878.784,235.752 882.118,239.752 884.5,244.5C 880.692,240.878 877.359,236.878 874.5,232.5 Z"/></g>
<g><path style="opacity:0.455" fill="#1c211c" d="M 147.5,236.5 C 142.874,243.126 137.874,249.46 132.5,255.5C 136.364,248.299 141.364,241.966 147.5,236.5 Z"/></g>
<g><path style="opacity:0.412" fill="#191a19" d="M 884.5,244.5 C 886.587,245.585 887.92,247.251 888.5,249.5C 886.413,248.415 885.08,246.749 884.5,244.5 Z"/></g>
<g><path style="opacity:0.412" fill="#1a1e1b" d="M 888.5,249.5 C 890.9,251.296 892.567,253.63 893.5,256.5C 891.1,254.704 889.433,252.37 888.5,249.5 Z"/></g>
<g><path style="opacity:0.443" fill="#1b1e1b" d="M 132.5,255.5 C 132.262,257.404 131.262,258.738 129.5,259.5C 129.738,257.596 130.738,256.262 132.5,255.5 Z"/></g>
<g><path style="opacity:0.431" fill="#1b1e1b" d="M 893.5,256.5 C 895.262,257.262 896.262,258.596 896.5,260.5C 894.738,259.738 893.738,258.404 893.5,256.5 Z"/></g>
<g><path style="opacity:0.424" fill="#191c1a" d="M 896.5,260.5 C 898.262,261.262 899.262,262.596 899.5,264.5C 897.738,263.738 896.738,262.404 896.5,260.5 Z"/></g>
<g><path style="opacity:0.463" fill="#1d231e" d="M 129.5,259.5 C 128.567,262.37 126.9,264.704 124.5,266.5C 125.433,263.63 127.1,261.296 129.5,259.5 Z"/></g>
<g><path style="opacity:0.412" fill="#181918" d="M 899.5,264.5 C 900.906,264.973 901.573,265.973 901.5,267.5C 900.094,267.027 899.427,266.027 899.5,264.5 Z"/></g>
<g><path style="opacity:0.412" fill="#191c1a" d="M 901.5,267.5 C 902.906,267.973 903.573,268.973 903.5,270.5C 902.094,270.027 901.427,269.027 901.5,267.5 Z"/></g>
<g><path style="opacity:0.443" fill="#1d241e" d="M 124.5,266.5 C 122.938,270.392 120.605,273.725 117.5,276.5C 119.062,272.608 121.395,269.275 124.5,266.5 Z"/></g>
<g><path style="opacity:0.412" fill="#1a1d1a" d="M 903.5,270.5 C 906.277,272.951 908.277,275.951 909.5,279.5C 906.759,277.025 904.759,274.025 903.5,270.5 Z"/></g>
<g><path style="opacity:0.494" fill="#1a1e1a" d="M 117.5,276.5 C 117.573,278.027 116.906,279.027 115.5,279.5C 115.427,277.973 116.094,276.973 117.5,276.5 Z"/></g>
<g><path style="opacity:0.412" fill="#191b19" d="M 909.5,279.5 C 910.906,279.973 911.573,280.973 911.5,282.5C 910.094,282.027 909.427,281.027 909.5,279.5 Z"/></g>
<g><path style="opacity:0.412" fill="#1b1f1b" d="M 485.5,281.5 C 477.005,283.398 468.338,285.065 459.5,286.5C 467.804,283.573 476.471,281.907 485.5,281.5 Z"/></g>
<g><path style="opacity:0.431" fill="#1b201c" d="M 115.5,279.5 C 114.617,282.704 112.95,285.371 110.5,287.5C 111.383,284.296 113.05,281.629 115.5,279.5 Z"/></g>
<g><path style="opacity:0.412" fill="#1d231e" d="M 546.5,282.5 C 550.458,282.251 554.124,282.918 557.5,284.5C 553.613,284.354 549.946,283.687 546.5,282.5 Z"/></g>
<g><path style="opacity:0.412" fill="#1b1e1b" d="M 911.5,282.5 C 914.502,285.161 916.502,288.495 917.5,292.5C 915,289.506 913,286.173 911.5,282.5 Z"/></g>
<g><path style="opacity:0.412" fill="#191c19" d="M 459.5,286.5 C 457.485,287.924 455.152,288.59 452.5,288.5C 454.515,287.076 456.848,286.41 459.5,286.5 Z"/></g>
<g><path style="opacity:0.412" fill="#1a1d1a" d="M 566.5,286.5 C 569.152,286.41 571.485,287.076 573.5,288.5C 570.848,288.59 568.515,287.924 566.5,286.5 Z"/></g>
<g><path style="opacity:0.443" fill="#191b19" d="M 110.5,287.5 C 110.25,289.674 109.25,291.341 107.5,292.5C 107.75,290.326 108.75,288.659 110.5,287.5 Z"/></g>
<g><path style="opacity:0.412" fill="#1a1d1a" d="M 452.5,288.5 C 449.495,290.277 446.162,291.277 442.5,291.5C 445.505,289.723 448.838,288.723 452.5,288.5 Z"/></g>
<g><path style="opacity:0.412" fill="#1a1c1a" d="M 573.5,288.5 C 576.152,288.41 578.485,289.076 580.5,290.5C 577.848,290.59 575.515,289.924 573.5,288.5 Z"/></g>
<g><path style="opacity:0.412" fill="#1b1e1b" d="M 580.5,290.5 C 586.285,291.536 591.618,293.536 596.5,296.5C 590.871,295.071 585.537,293.071 580.5,290.5 Z"/></g>
<g><path style="opacity:0.412" fill="#1b1e1b" d="M 442.5,291.5 C 440.208,293.267 437.542,294.267 434.5,294.5C 436.792,292.733 439.458,291.733 442.5,291.5 Z"/></g>
<g><path style="opacity:0.412" fill="#191c1a" d="M 917.5,292.5 C 919.25,293.659 920.25,295.326 920.5,297.5C 918.75,296.341 917.75,294.674 917.5,292.5 Z"/></g>
<g><path style="opacity:0.412" fill="#1c201c" d="M 107.5,292.5 C 107.25,294.674 106.25,296.341 104.5,297.5C 104.75,295.326 105.75,293.659 107.5,292.5 Z"/></g>
<g><path style="opacity:0.412" fill="#191b19" d="M 434.5,294.5 C 433.22,295.931 431.553,296.598 429.5,296.5C 430.78,295.069 432.447,294.402 434.5,294.5 Z"/></g>
<g><path style="opacity:0.412" fill="#191b19" d="M 429.5,296.5 C 428.22,297.931 426.553,298.598 424.5,298.5C 425.78,297.069 427.447,296.402 429.5,296.5 Z"/></g>
<g><path style="opacity:0.506" fill="#1b1f1b" d="M 104.5,297.5 C 104.25,299.674 103.25,301.341 101.5,302.5C 101.75,300.326 102.75,298.659 104.5,297.5 Z"/></g>
<g><path style="opacity:0.412" fill="#191a19" d="M 596.5,296.5 C 599.912,297.042 602.912,298.375 605.5,300.5C 602.088,299.958 599.088,298.625 596.5,296.5 Z"/></g>
<g><path style="opacity:0.412" fill="#1c221d" d="M 422.5,299.5 C 418.818,302.008 414.818,304.008 410.5,305.5C 413.914,302.46 417.914,300.46 422.5,299.5 Z"/></g>
<g><path style="opacity:0.412" fill="#1b1f1b" d="M 921.5,299.5 C 923.588,301.336 924.921,303.669 925.5,306.5C 923.412,304.664 922.079,302.331 921.5,299.5 Z"/></g>
<g><path style="opacity:0.412" fill="#1e241e" d="M 605.5,300.5 C 609.42,301.127 612.753,302.793 615.5,305.5C 611.849,304.341 608.515,302.674 605.5,300.5 Z"/></g>
<g><path style="opacity:0.506" fill="#1c201c" d="M 100.5,304.5 C 99.9213,307.331 98.588,309.664 96.5,311.5C 97.0787,308.669 98.412,306.336 100.5,304.5 Z"/></g>
<g><path style="opacity:0.412" fill="#1a1d1a" d="M 410.5,305.5 C 409.486,306.674 408.153,307.34 406.5,307.5C 407.287,305.896 408.62,305.229 410.5,305.5 Z"/></g>
<g><path style="opacity:0.412" fill="#1a1c1a" d="M 617.5,306.5 C 619.674,306.75 621.341,307.75 622.5,309.5C 620.326,309.25 618.659,308.25 617.5,306.5 Z"/></g>
<g><path style="opacity:0.412" fill="#1a1d1a" d="M 406.5,307.5 C 404.664,309.588 402.331,310.921 399.5,311.5C 401.336,309.412 403.669,308.079 406.5,307.5 Z"/></g>
<g><path style="opacity:0.412" fill="#1a1c1a" d="M 622.5,309.5 C 624.674,309.75 626.341,310.75 627.5,312.5C 625.326,312.25 623.659,311.25 622.5,309.5 Z"/></g>
<g><path style="opacity:0.412" fill="#1a1d1a" d="M 399.5,311.5 C 398.341,313.25 396.674,314.25 394.5,314.5C 395.659,312.75 397.326,311.75 399.5,311.5 Z"/></g>
<g><path style="opacity:0.412" fill="#181a18" d="M 627.5,312.5 C 629.674,312.75 631.341,313.75 632.5,315.5C 630.326,315.25 628.659,314.25 627.5,312.5 Z"/></g>
<g><path style="opacity:0.412" fill="#191a19" d="M 394.5,314.5 C 393.198,316.822 391.198,318.155 388.5,318.5C 390.147,316.674 392.147,315.34 394.5,314.5 Z"/></g>
<g><path style="opacity:0.412" fill="#1b1f1b" d="M 632.5,315.5 C 635.198,315.845 637.198,317.178 638.5,319.5C 636.147,318.66 634.147,317.326 632.5,315.5 Z"/></g>
<g><path style="opacity:0.412" fill="#181918" d="M 388.5,318.5 C 388.027,319.906 387.027,320.573 385.5,320.5C 385.973,319.094 386.973,318.427 388.5,318.5 Z"/></g>
<g><path style="opacity:0.412" fill="#181a18" d="M 95.5,313.5 C 93.3412,319.151 90.6745,324.484 87.5,329.5C 89.1263,323.581 91.7929,318.247 95.5,313.5 Z"/></g>
<g><path style="opacity:0.412" fill="#181918" d="M 638.5,319.5 C 640.027,319.427 641.027,320.094 641.5,321.5C 639.973,321.573 638.973,320.906 638.5,319.5 Z"/></g>
<g><path style="opacity:0.412" fill="#191b19" d="M 385.5,320.5 C 384.738,322.262 383.404,323.262 381.5,323.5C 382.262,321.738 383.596,320.738 385.5,320.5 Z"/></g>
<g><path style="opacity:0.412" fill="#1a1e1b" d="M 926.5,308.5 C 931.874,316.581 936.207,325.248 939.5,334.5C 934.659,326.151 930.325,317.484 926.5,308.5 Z"/></g>
<g><path style="opacity:0.412" fill="#1b1e1b" d="M 641.5,321.5 C 644.891,322.529 647.557,324.529 649.5,327.5C 646.467,325.984 643.8,323.984 641.5,321.5 Z"/></g>
<g><path style="opacity:0.412" fill="#181918" d="M 381.5,323.5 C 381.027,324.906 380.027,325.573 378.5,325.5C 378.973,324.094 379.973,323.427 381.5,323.5 Z"/></g>
<g><path style="opacity:0.412" fill="#191b19" d="M 378.5,325.5 C 377.415,327.587 375.749,328.92 373.5,329.5C 374.585,327.413 376.251,326.08 378.5,325.5 Z"/></g>
<g><path style="opacity:0.412" fill="#1a1d1a" d="M 649.5,327.5 C 651.749,328.08 653.415,329.413 654.5,331.5C 652.251,330.92 650.585,329.587 649.5,327.5 Z"/></g>
<g><path style="opacity:0.412" fill="#181a19" d="M 373.5,329.5 C 372.089,331.914 370.089,333.581 367.5,334.5C 368.911,332.086 370.911,330.419 373.5,329.5 Z"/></g>
<g><path style="opacity:0.412" fill="#181a19" d="M 654.5,331.5 C 657.089,332.419 659.089,334.086 660.5,336.5C 657.911,335.581 655.911,333.914 654.5,331.5 Z"/></g>
<g><path style="opacity:0.412" fill="#1c201c" d="M 85.5,333.5 C 83.684,339.125 81.3507,344.459 78.5,349.5C 79.7662,343.64 82.0995,338.307 85.5,333.5 Z"/></g>
<g><path style="opacity:0.412" fill="#191b19" d="M 367.5,334.5 C 365.761,337.243 363.427,339.243 360.5,340.5C 362.239,337.757 364.573,335.757 367.5,334.5 Z"/></g>
<g><path style="opacity:0.412" fill="#161716" d="M 360.5,340.5 C 360.5,341.833 359.833,342.5 358.5,342.5C 358.833,341.5 359.5,340.833 360.5,340.5 Z"/></g>
<g><path style="opacity:0.412" fill="#1b1e1b" d="M 939.5,334.5 C 941.625,337.088 942.958,340.088 943.5,343.5C 941.375,340.912 940.042,337.912 939.5,334.5 Z"/></g>
<g><path style="opacity:0.412" fill="#1a1d1a" d="M 660.5,336.5 C 661.239,336.369 661.906,336.536 662.5,337C 670.094,344.089 677.094,351.589 683.5,359.5C 675.5,352.167 667.833,344.5 660.5,336.5 Z"/></g>
<g><path style="opacity:0.412" fill="#1f2620" d="M 355.5,345.5 C 354.167,347.5 352.5,349.167 350.5,350.5C 351.167,347.833 352.833,346.167 355.5,345.5 Z"/></g>
<g><path style="opacity:0.412" fill="#191b19" d="M 944.5,345.5 C 945.931,346.78 946.598,348.447 946.5,350.5C 945.069,349.22 944.402,347.553 944.5,345.5 Z"/></g>
<g><path style="opacity:0.412" fill="#1b1e1b" d="M 946.5,350.5 C 948.293,352.426 949.293,354.759 949.5,357.5C 947.707,355.574 946.707,353.241 946.5,350.5 Z"/></g>
<g><path style="opacity:0.412" fill="#1b201c" d="M 78.5,349.5 C 77.2656,354.883 75.2656,359.883 72.5,364.5C 73.7042,359.105 75.7042,354.105 78.5,349.5 Z"/></g>
<g><path style="opacity:0.412" fill="#191c1a" d="M 348.5,352.5 C 346.57,356.1 343.903,359.1 340.5,361.5C 342.43,357.9 345.097,354.9 348.5,352.5 Z"/></g>
<g><path style="opacity:0.412" fill="#1a1d1a" d="M 683.5,359.5 C 686.243,361.239 688.243,363.573 689.5,366.5C 686.757,364.761 684.757,362.427 683.5,359.5 Z"/></g>
<g><path style="opacity:0.412" fill="#1b1e1b" d="M 949.5,357.5 C 951.267,359.792 952.267,362.458 952.5,365.5C 950.733,363.208 949.733,360.542 949.5,357.5 Z"/></g>
<g><path style="opacity:0.412" fill="#181a18" d="M 340.5,361.5 C 339.581,364.089 337.914,366.089 335.5,367.5C 336.419,364.911 338.086,362.911 340.5,361.5 Z"/></g>
<g><path style="opacity:0.412" fill="#191b19" d="M 72.5,364.5 C 72.5979,366.553 71.9313,368.22 70.5,369.5C 70.4021,367.447 71.0687,365.78 72.5,364.5 Z"/></g>
<g><path style="opacity:0.412" fill="#191b19" d="M 335.5,367.5 C 334.92,369.749 333.587,371.415 331.5,372.5C 332.08,370.251 333.413,368.585 335.5,367.5 Z"/></g>
<g><path style="opacity:0.412" fill="#1b201c" d="M 689.5,366.5 C 693.262,369.929 696.262,373.929 698.5,378.5C 694.738,375.071 691.738,371.071 689.5,366.5 Z"/></g>
<g><path style="opacity:0.412" fill="#181a19" d="M 953.5,368.5 C 954.931,369.78 955.598,371.447 955.5,373.5C 954.069,372.22 953.402,370.553 953.5,368.5 Z"/></g>
<g><path style="opacity:0.412" fill="#1c211c" d="M 955.5,373.5 C 956.738,375.214 957.405,377.214 957.5,379.5C 955.926,377.898 955.259,375.898 955.5,373.5 Z"/></g>
<g><path style="opacity:0.412" fill="#191b19" d="M 331.5,372.5 C 330.567,375.37 328.9,377.704 326.5,379.5C 327.433,376.63 329.1,374.296 331.5,372.5 Z"/></g>
<g><path style="opacity:0.412" fill="#181a18" d="M 698.5,378.5 C 699.906,378.973 700.573,379.973 700.5,381.5C 699.094,381.027 698.427,380.027 698.5,378.5 Z"/></g>
<g><path style="opacity:0.412" fill="#181918" d="M 326.5,379.5 C 326.573,381.027 325.906,382.027 324.5,382.5C 324.427,380.973 325.094,379.973 326.5,379.5 Z"/></g>
<g><path style="opacity:0.412" fill="#191b19" d="M 700.5,381.5 C 701.906,381.973 702.573,382.973 702.5,384.5C 701.094,384.027 700.427,383.027 700.5,381.5 Z"/></g>
<g><path style="opacity:0.412" fill="#191b19" d="M 702.5,384.5 C 703.906,384.973 704.573,385.973 704.5,387.5C 703.094,387.027 702.427,386.027 702.5,384.5 Z"/></g>
<g><path style="opacity:0.412" fill="#1a1c1a" d="M 324.5,382.5 C 323.66,384.853 322.326,386.853 320.5,388.5C 320.845,385.802 322.178,383.802 324.5,382.5 Z"/></g>
<g><path style="opacity:0.412" fill="#191c1a" d="M 704.5,387.5 C 706.25,388.659 707.25,390.326 707.5,392.5C 705.75,391.341 704.75,389.674 704.5,387.5 Z"/></g>
<g><path style="opacity:0.412" fill="#1a1d1a" d="M 320.5,388.5 C 320.25,390.674 319.25,392.341 317.5,393.5C 317.75,391.326 318.75,389.659 320.5,388.5 Z"/></g>
<g><path style="opacity:0.412" fill="#1a1e1b" d="M 63.5,390.5 C 63.5905,393.152 62.9238,395.485 61.5,397.5C 61.4095,394.848 62.0762,392.515 63.5,390.5 Z"/></g>
<g><path style="opacity:0.412" fill="#1a1e1b" d="M 961.5,391.5 C 962.924,393.515 963.59,395.848 963.5,398.5C 962.076,396.485 961.41,394.152 961.5,391.5 Z"/></g>
<g><path style="opacity:0.412" fill="#181a18" d="M 707.5,392.5 C 709.588,394.336 710.921,396.669 711.5,399.5C 709.412,397.664 708.079,395.331 707.5,392.5 Z"/></g>
<g><path style="opacity:0.412" fill="#191c19" d="M 317.5,393.5 C 316.921,396.331 315.588,398.664 313.5,400.5C 314.079,397.669 315.412,395.336 317.5,393.5 Z"/></g>
<g><path style="opacity:0.412" fill="#1a1c1a" d="M 60.5,400.5 C 60.5905,403.152 59.9238,405.485 58.5,407.5C 58.4095,404.848 59.0762,402.515 60.5,400.5 Z"/></g>
<g><path style="opacity:0.412" fill="#1d221d" d="M 712.5,401.5 C 715.207,404.247 716.873,407.58 717.5,411.5C 715.326,408.485 713.659,405.151 712.5,401.5 Z"/></g>
<g><path style="opacity:0.412" fill="#191b19" d="M 964.5,401.5 C 965.924,403.515 966.59,405.848 966.5,408.5C 965.076,406.485 964.41,404.152 964.5,401.5 Z"/></g>
<g><path style="opacity:0.424" fill="#1c221d" d="M 309.5,408.5 C 309.34,410.153 308.674,411.486 307.5,412.5C 307.229,410.62 307.896,409.287 309.5,408.5 Z"/></g>
<g><path style="opacity:0.412" fill="#1a1d1a" d="M 718.5,413.5 C 720.293,415.426 721.293,417.759 721.5,420.5C 719.707,418.574 718.707,416.241 718.5,413.5 Z"/></g>
<g><path style="opacity:0.957" fill="#2b3d2d" d="M 56.5,415.5 C 56.7062,418.495 56.0395,421.162 54.5,423.5C 54.5651,420.572 55.2318,417.905 56.5,415.5 Z"/></g>
<g><path style="opacity:0.412" fill="#1c201c" d="M 721.5,420.5 C 723.794,423.37 725.128,426.703 725.5,430.5C 723.597,427.47 722.263,424.137 721.5,420.5 Z"/></g>
<g><path style="opacity:0.412" fill="#191c19" d="M 306.5,414.5 C 305.597,418.889 303.931,422.889 301.5,426.5C 302.403,422.111 304.069,418.111 306.5,414.5 Z"/></g>
<g><path style="opacity:0.412" fill="#1a1e1b" d="M 969.5,420.5 C 970.913,423.219 971.58,426.219 971.5,429.5C 970.087,426.781 969.42,423.781 969.5,420.5 Z"/></g>
<g><path style="opacity:0.412" fill="#1d221d" d="M 725.5,430.5 C 727.806,434.085 729.139,438.085 729.5,442.5C 727.595,438.784 726.261,434.784 725.5,430.5 Z"/></g>
<g><path style="opacity:0.412" fill="#1c201c" d="M 53.5,428.5 C 53.5797,431.781 52.913,434.781 51.5,437.5C 51.4203,434.219 52.087,431.219 53.5,428.5 Z"/></g>
<g><path style="opacity:0.412" fill="#1a1c1a" d="M 300.5,429.5 C 300.267,432.542 299.267,435.208 297.5,437.5C 297.733,434.458 298.733,431.792 300.5,429.5 Z"/></g>
<g><path style="opacity:0.412" fill="#1c211d" d="M 297.5,437.5 C 295.946,445.387 293.946,453.054 291.5,460.5C 292.428,452.449 294.428,444.782 297.5,437.5 Z"/></g>
<g><path style="opacity:0.412" fill="#1c201c" d="M 523.5,449.5 C 518.387,445.625 512.72,444.625 506.5,446.5C 506.918,445.778 507.584,445.278 508.5,445C 511.5,444.333 514.5,444.333 517.5,445C 520.274,445.624 522.274,447.124 523.5,449.5 Z"/></g>
<g><path style="opacity:0.557" fill="#1e261f" d="M 506.5,446.5 C 505.421,448.543 503.754,449.876 501.5,450.5C 502.539,448.469 504.205,447.136 506.5,446.5 Z"/></g>
<g><path style="opacity:0.412" fill="#1a1e1b" d="M 730.5,445.5 C 731.924,447.515 732.59,449.848 732.5,452.5C 731.076,450.485 730.41,448.152 730.5,445.5 Z"/></g>
<g><path style="opacity:0.494" fill="#1f2720" d="M 523.5,449.5 C 525.262,450.262 526.262,451.596 526.5,453.5C 524.738,452.738 523.738,451.404 523.5,449.5 Z"/></g>
<g><path style="opacity:0.486" fill="#1d221d" d="M 501.5,450.5 C 501.262,452.404 500.262,453.738 498.5,454.5C 498.738,452.596 499.738,451.262 501.5,450.5 Z"/></g>
<g><path style="opacity:0.412" fill="#1b1f1b" d="M 732.5,452.5 C 733.913,455.219 734.58,458.219 734.5,461.5C 733.087,458.781 732.42,455.781 732.5,452.5 Z"/></g>
<g><path style="opacity:0.463" fill="#1c211d" d="M 526.5,453.5 C 528.262,454.262 529.262,455.596 529.5,457.5C 527.738,456.738 526.738,455.404 526.5,453.5 Z"/></g>
<g><path style="opacity:0.412" fill="#1a1d1a" d="M 529.5,457.5 C 530.906,457.973 531.573,458.973 531.5,460.5C 530.094,460.027 529.427,459.027 529.5,457.5 Z"/></g>
<g><path style="opacity:0.412" fill="#1a1d1a" d="M 498.5,454.5 C 494.934,461.064 490.601,467.064 485.5,472.5C 488.145,467.218 491.312,462.218 495,457.5C 496.039,456.29 497.206,455.29 498.5,454.5 Z"/></g>
<g><path style="opacity:0.431" fill="#1b1f1b" d="M 531.5,460.5 C 533.262,461.262 534.262,462.596 534.5,464.5C 532.738,463.738 531.738,462.404 531.5,460.5 Z"/></g>
<g><path style="opacity:0.412" fill="#1b1f1b" d="M 291.5,460.5 C 291.57,464.425 290.903,468.091 289.5,471.5C 289.43,467.575 290.097,463.909 291.5,460.5 Z"/></g>
<g><path style="opacity:0.412" fill="#243126" d="M 734.5,461.5 C 738.605,478.316 739.938,495.316 738.5,512.5C 738.389,495.397 737.056,478.397 734.5,461.5 Z"/></g>
<g><path style="opacity:0.412" fill="#191c19" d="M 534.5,464.5 C 535.906,464.973 536.573,465.973 536.5,467.5C 535.094,467.027 534.427,466.027 534.5,464.5 Z"/></g>
<g><path style="opacity:0.455" fill="#1b1f1b" d="M 536.5,467.5 C 538.262,468.262 539.262,469.596 539.5,471.5C 537.738,470.738 536.738,469.404 536.5,467.5 Z"/></g>
<g><path style="opacity:0.412" fill="#191b19" d="M 539.5,471.5 C 540.906,471.973 541.573,472.973 541.5,474.5C 540.094,474.027 539.427,473.027 539.5,471.5 Z"/></g>
<g><path style="opacity:0.443" fill="#1b1f1b" d="M 485.5,472.5 C 485.262,474.404 484.262,475.738 482.5,476.5C 482.738,474.596 483.738,473.262 485.5,472.5 Z"/></g>
<g><path style="opacity:0.412" fill="#1b1f1c" d="M 289.5,471.5 C 289.414,478.037 288.747,484.37 287.5,490.5C 287.337,483.938 288.004,477.605 289.5,471.5 Z"/></g>
<g><path style="opacity:0.431" fill="#1a1d1a" d="M 541.5,474.5 C 543.262,475.262 544.262,476.596 544.5,478.5C 542.738,477.738 541.738,476.404 541.5,474.5 Z"/></g>
<g><path style="opacity:0.557" fill="#1d231e" d="M 482.5,476.5 C 482.573,478.027 481.906,479.027 480.5,479.5C 480.427,477.973 481.094,476.973 482.5,476.5 Z"/></g>
<g><path style="opacity:0.412" fill="#171717" d="M 544.5,478.5 C 545.906,478.973 546.573,479.973 546.5,481.5C 545.094,481.027 544.427,480.027 544.5,478.5 Z"/></g>
<g><path style="opacity:0.412" fill="#191b19" d="M 546.5,481.5 C 547.906,481.973 548.573,482.973 548.5,484.5C 547.094,484.027 546.427,483.027 546.5,481.5 Z"/></g>
<g><path style="opacity:0.463" fill="#1e251f" d="M 480.5,479.5 C 479.567,482.37 477.9,484.704 475.5,486.5C 476.433,483.63 478.1,481.296 480.5,479.5 Z"/></g>
<g><path style="opacity:0.412" fill="#1c211d" d="M 548.5,484.5 C 554.233,490.963 559.233,497.963 563.5,505.5C 557.767,499.037 552.767,492.037 548.5,484.5 Z"/></g>
<g><path style="opacity:0.494" fill="#1e241e" d="M 475.5,486.5 C 474.567,489.37 472.9,491.704 470.5,493.5C 471.433,490.63 473.1,488.296 475.5,486.5 Z"/></g>
<g><path style="opacity:0.486" fill="#1d241e" d="M 470.5,493.5 C 469.567,496.37 467.9,498.704 465.5,500.5C 466.433,497.63 468.1,495.296 470.5,493.5 Z"/></g>
<g><path style="opacity:0.475" fill="#1c201c" d="M 465.5,500.5 C 464.567,503.37 462.9,505.704 460.5,507.5C 461.433,504.63 463.1,502.296 465.5,500.5 Z"/></g>
<g><path style="opacity:0.412" fill="#191c1a" d="M 563.5,505.5 C 565.9,507.296 567.567,509.63 568.5,512.5C 566.1,510.704 564.433,508.37 563.5,505.5 Z"/></g>
<g><path style="opacity:0.486" fill="#1c211d" d="M 460.5,507.5 C 459.567,510.37 457.9,512.704 455.5,514.5C 456.433,511.63 458.1,509.296 460.5,507.5 Z"/></g>
<g><path style="opacity:0.412" fill="#191b19" d="M 568.5,512.5 C 569.906,512.973 570.573,513.973 570.5,515.5C 569.094,515.027 568.427,514.027 568.5,512.5 Z"/></g>
<g><path style="opacity:0.412" fill="#1b1f1b" d="M 570.5,515.5 C 572.9,517.296 574.567,519.63 575.5,522.5C 573.1,520.704 571.433,518.37 570.5,515.5 Z"/></g>
<g><path style="opacity:0.431" fill="#1c201c" d="M 455.5,514.5 C 454.567,517.37 452.9,519.704 450.5,521.5C 451.433,518.63 453.1,516.296 455.5,514.5 Z"/></g>
<g><path style="opacity:0.412" fill="#171818" d="M 575.5,522.5 C 576.906,522.973 577.573,523.973 577.5,525.5C 576.094,525.027 575.427,524.027 575.5,522.5 Z"/></g>
<g><path style="opacity:0.424" fill="#1b1f1b" d="M 450.5,521.5 C 448.938,525.392 446.605,528.725 443.5,531.5C 445.062,527.608 447.395,524.275 450.5,521.5 Z"/></g>
<g><path style="opacity:0.412" fill="#1a1c1a" d="M 577.5,525.5 C 579.9,527.296 581.567,529.63 582.5,532.5C 580.1,530.704 578.433,528.37 577.5,525.5 Z"/></g>
<g><path style="opacity:0.506" fill="#1b1e1b" d="M 443.5,531.5 C 443.573,533.027 442.906,534.027 441.5,534.5C 441.427,532.973 442.094,531.973 443.5,531.5 Z"/></g>
<g><path style="opacity:0.424" fill="#1a1c1a" d="M 441.5,534.5 C 441.262,536.404 440.262,537.738 438.5,538.5C 438.738,536.596 439.738,535.262 441.5,534.5 Z"/></g>
<g><path style="opacity:0.412" fill="#191c1a" d="M 582.5,532.5 C 584.9,534.296 586.567,536.63 587.5,539.5C 585.1,537.704 583.433,535.37 582.5,532.5 Z"/></g>
<g><path style="opacity:0.412" fill="#191a19" d="M 587.5,539.5 C 588.906,539.973 589.573,540.973 589.5,542.5C 588.094,542.027 587.427,541.027 587.5,539.5 Z"/></g>
<g><path style="opacity:0.412" fill="#191c19" d="M 438.5,538.5 C 436.938,542.392 434.605,545.725 431.5,548.5C 433.062,544.608 435.395,541.275 438.5,538.5 Z"/></g>
<g><path style="opacity:0.412" fill="#191b19" d="M 589.5,542.5 C 591.262,543.262 592.262,544.596 592.5,546.5C 590.738,545.738 589.738,544.404 589.5,542.5 Z"/></g>
<g><path style="opacity:0.412" fill="#181a18" d="M 592.5,546.5 C 593.906,546.973 594.573,547.973 594.5,549.5C 593.094,549.027 592.427,548.027 592.5,546.5 Z"/></g>
<g><path style="opacity:0.431" fill="#1c201c" d="M 594.5,549.5 C 596.9,551.296 598.567,553.63 599.5,556.5C 597.1,554.704 595.433,552.37 594.5,549.5 Z"/></g>
<g><path style="opacity:0.463" fill="#1d221d" d="M 431.5,548.5 C 430.567,551.37 428.9,553.704 426.5,555.5C 427.433,552.63 429.1,550.296 431.5,548.5 Z"/></g>
<g><path style="opacity:0.412" fill="#1b1e1b" d="M 291.5,550.5 C 292.913,553.219 293.58,556.219 293.5,559.5C 292.087,556.781 291.42,553.781 291.5,550.5 Z"/></g>
<g><path style="opacity:0.412" fill="#222d23" d="M 981.5,501.5 C 982.167,511.494 982.5,521.661 982.5,532C 982.693,546.699 982.026,561.199 980.5,575.5C 981.344,550.843 981.678,526.177 981.5,501.5 Z"/></g>
<g><path style="opacity:0.412" fill="#1c201c" d="M 733.5,553.5 C 733.416,557.837 732.416,561.837 730.5,565.5C 730.898,561.239 731.898,557.239 733.5,553.5 Z"/></g>
<g><path style="opacity:0.412" fill="#181918" d="M 426.5,555.5 C 425.567,558.37 423.9,560.704 421.5,562.5C 422.433,559.63 424.1,557.296 426.5,555.5 Z"/></g>
<g><path style="opacity:0.412" fill="#1a1e1b" d="M 599.5,556.5 C 602.605,559.275 604.938,562.608 606.5,566.5C 603.395,563.725 601.062,560.392 599.5,556.5 Z"/></g>
<g><path style="opacity:0.424" fill="#1f261f" d="M 42.5,553.5 C 43.8797,565.321 44.8797,577.321 45.5,589.5C 43.4588,577.731 42.4588,565.731 42.5,553.5 Z"/></g>
<g><path style="opacity:0.486" fill="#1a1d1a" d="M 421.5,562.5 C 421.573,564.027 420.906,565.027 419.5,565.5C 419.427,563.973 420.094,562.973 421.5,562.5 Z"/></g>
<g><path style="opacity:0.412" fill="#1a1e1a" d="M 294.5,563.5 C 295.924,565.515 296.59,567.848 296.5,570.5C 295.076,568.485 294.41,566.152 294.5,563.5 Z"/></g>
<g><path style="opacity:0.412" fill="#1a1d1a" d="M 606.5,566.5 C 608.9,568.296 610.567,570.63 611.5,573.5C 609.1,571.704 607.433,569.37 606.5,566.5 Z"/></g>
<g><path style="opacity:0.412" fill="#1a1d1a" d="M 730.5,565.5 C 730.59,568.152 729.924,570.485 728.5,572.5C 728.41,569.848 729.076,567.515 730.5,565.5 Z"/></g>
<g><path style="opacity:0.463" fill="#1b201c" d="M 419.5,565.5 C 418.567,568.37 416.9,570.704 414.5,572.5C 415.433,569.63 417.1,567.296 419.5,565.5 Z"/></g>
<g><path style="opacity:0.412" fill="#191a19" d="M 611.5,573.5 C 612.906,573.973 613.573,574.973 613.5,576.5C 612.094,576.027 611.427,575.027 611.5,573.5 Z"/></g>
<g><path style="opacity:0.431" fill="#1a1e1b" d="M 414.5,572.5 C 413.567,575.37 411.9,577.704 409.5,579.5C 410.433,576.63 412.1,574.296 414.5,572.5 Z"/></g>
<g><path style="opacity:0.455" fill="#181a19" d="M 409.5,579.5 C 409.573,581.027 408.906,582.027 407.5,582.5C 407.427,580.973 408.094,579.973 409.5,579.5 Z"/></g>
<g><path style="opacity:0.412" fill="#1b1e1b" d="M 726.5,578.5 C 726.267,581.542 725.267,584.208 723.5,586.5C 723.733,583.458 724.733,580.792 726.5,578.5 Z"/></g>
<g><path style="opacity:0.412" fill="#191b19" d="M 613.5,576.5 C 615.9,578.296 617.567,580.63 618.5,583.5C 616.1,581.704 614.433,579.37 613.5,576.5 Z"/></g>
<g><path style="opacity:0.569" fill="#1d231e" d="M 407.5,582.5 C 407.573,584.027 406.906,585.027 405.5,585.5C 405.427,583.973 406.094,582.973 407.5,582.5 Z"/></g>
<g><path style="opacity:0.412" fill="#181a18" d="M 618.5,583.5 C 619.906,583.973 620.573,584.973 620.5,586.5C 619.094,586.027 618.427,585.027 618.5,583.5 Z"/></g>
<g><path style="opacity:0.431" fill="#191d1a" d="M 620.5,586.5 C 622.262,587.262 623.262,588.596 623.5,590.5C 621.738,589.738 620.738,588.404 620.5,586.5 Z"/></g>
<g><path style="opacity:0.412" fill="#181a18" d="M 723.5,586.5 C 723.598,588.553 722.931,590.22 721.5,591.5C 721.402,589.447 722.069,587.78 723.5,586.5 Z"/></g>
<g><path style="opacity:0.412" fill="#191c19" d="M 300.5,582.5 C 302.403,585.53 303.737,588.863 304.5,592.5C 302.206,589.63 300.872,586.297 300.5,582.5 Z"/></g>
<g><path style="opacity:0.412" fill="#1b1f1c" d="M 979.5,585.5 C 979.624,591.069 978.957,596.402 977.5,601.5C 977.527,595.949 978.194,590.616 979.5,585.5 Z"/></g>
<g><path style="opacity:0.463" fill="#1e251f" d="M 405.5,585.5 C 403.145,590.88 399.812,595.546 395.5,599.5C 398.345,594.473 401.679,589.806 405.5,585.5 Z"/></g>
<g><path style="opacity:0.412" fill="#1a1e1b" d="M 623.5,590.5 C 626.605,593.275 628.938,596.608 630.5,600.5C 627.395,597.725 625.062,594.392 623.5,590.5 Z"/></g>
<g><path style="opacity:0.412" fill="#1a1d1a" d="M 721.5,591.5 C 721.598,593.553 720.931,595.22 719.5,596.5C 719.402,594.447 720.069,592.78 721.5,591.5 Z"/></g>
<g><path style="opacity:0.412" fill="#191c19" d="M 304.5,592.5 C 306.293,594.426 307.293,596.759 307.5,599.5C 305.707,597.574 304.707,595.241 304.5,592.5 Z"/></g>
<g><path style="opacity:0.424" fill="#1b1f1b" d="M 630.5,600.5 C 632.9,602.296 634.567,604.63 635.5,607.5C 633.1,605.704 631.433,603.37 630.5,600.5 Z"/></g>
<g><path style="opacity:0.424" fill="#1b1e1b" d="M 395.5,599.5 C 393.938,603.392 391.605,606.725 388.5,609.5C 390.062,605.608 392.395,602.275 395.5,599.5 Z"/></g>
<g><path style="opacity:0.412" fill="#1e241e" d="M 977.5,601.5 C 977.562,606.076 976.895,610.409 975.5,614.5C 975.438,609.924 976.105,605.591 977.5,601.5 Z"/></g>
<g><path style="opacity:0.443" fill="#1f2720" d="M 46.5,596.5 C 47.8955,600.591 48.5621,604.924 48.5,609.5C 47.1045,605.409 46.4379,601.076 46.5,596.5 Z"/></g>
<g><path style="opacity:0.412" fill="#191b19" d="M 635.5,607.5 C 636.906,607.973 637.573,608.973 637.5,610.5C 636.094,610.027 635.427,609.027 635.5,607.5 Z"/></g>
<g><path style="opacity:0.412" fill="#1a1d1a" d="M 307.5,599.5 C 310.674,604.516 313.341,609.849 315.5,615.5C 311.793,610.753 309.126,605.419 307.5,599.5 Z"/></g>
<g><path style="opacity:0.412" fill="#1d231e" d="M 48.5,609.5 C 49.9034,612.909 50.5701,616.575 50.5,620.5C 49.0966,617.091 48.4299,613.425 48.5,609.5 Z"/></g>
<g><path style="opacity:0.412" fill="#1d231e" d="M 718.5,598.5 C 716.874,604.419 714.207,609.753 710.5,614.5C 712.659,608.849 715.326,603.516 718.5,598.5 Z"/></g>
<g><path style="opacity:0.455" fill="#1c211c" d="M 388.5,609.5 C 387.567,612.37 385.9,614.704 383.5,616.5C 384.433,613.63 386.1,611.296 388.5,609.5 Z"/></g>
<g><path style="opacity:0.412" fill="#1a1d1a" d="M 637.5,610.5 C 640.933,613.601 643.6,617.268 645.5,621.5C 642.067,618.399 639.4,614.732 637.5,610.5 Z"/></g>
<g><path style="opacity:0.463" fill="#1a1d1a" d="M 710.5,614.5 C 709.921,617.331 708.588,619.664 706.5,621.5C 707.079,618.669 708.412,616.336 710.5,614.5 Z"/></g>
<g><path style="opacity:0.412" fill="#1b1e1b" d="M 315.5,615.5 C 318,618.494 320,621.827 321.5,625.5C 318.498,622.839 316.498,619.505 315.5,615.5 Z"/></g>
<g><path style="opacity:0.412" fill="#191b19" d="M 645.5,621.5 C 646.906,621.973 647.573,622.973 647.5,624.5C 646.094,624.027 645.427,623.027 645.5,621.5 Z"/></g>
<g><path style="opacity:0.463" fill="#1d231d" d="M 706.5,621.5 C 705.617,624.704 703.95,627.371 701.5,629.5C 702.383,626.296 704.05,623.629 706.5,621.5 Z"/></g>
<g><path style="opacity:0.412" fill="#191b19" d="M 321.5,625.5 C 322.906,625.973 323.573,626.973 323.5,628.5C 322.094,628.027 321.427,627.027 321.5,625.5 Z"/></g>
<g><path style="opacity:0.412" fill="#1e241e" d="M 975.5,615.5 C 974.243,626.845 971.909,637.845 968.5,648.5C 970.391,637.288 972.724,626.288 975.5,615.5 Z"/></g>
<g><path style="opacity:0.455" fill="#1b201c" d="M 383.5,616.5 C 381.145,621.88 377.812,626.546 373.5,630.5C 376.345,625.473 379.679,620.806 383.5,616.5 Z"/></g>
<g><path style="opacity:0.412" fill="#191b19" d="M 323.5,628.5 C 324.906,628.973 325.573,629.973 325.5,631.5C 324.094,631.027 323.427,630.027 323.5,628.5 Z"/></g>
<g><path style="opacity:0.545" fill="#1c221d" d="M 701.5,629.5 C 701.573,631.027 700.906,632.027 699.5,632.5C 699.427,630.973 700.094,629.973 701.5,629.5 Z"/></g>
<g><path style="opacity:0.412" fill="#1d231e" d="M 52.5,630.5 C 53.913,633.219 54.5797,636.219 54.5,639.5C 53.087,636.781 52.4203,633.781 52.5,630.5 Z"/></g>
<g><path style="opacity:0.412" fill="#1b1e1b" d="M 647.5,624.5 C 651.321,628.806 654.655,633.473 657.5,638.5C 653.188,634.546 649.855,629.88 647.5,624.5 Z"/></g>
<g><path style="opacity:0.431" fill="#1a1e1b" d="M 699.5,632.5 C 698.567,635.37 696.9,637.704 694.5,639.5C 695.433,636.63 697.1,634.296 699.5,632.5 Z"/></g>
<g><path style="opacity:0.412" fill="#1a1d1a" d="M 325.5,631.5 C 329.546,636.214 333.212,641.214 336.5,646.5C 331.682,642.348 328.015,637.348 325.5,631.5 Z"/></g>
<g><path style="opacity:0.412" fill="#191a19" d="M 657.5,638.5 C 658.906,638.973 659.573,639.973 659.5,641.5C 658.094,641.027 657.427,640.027 657.5,638.5 Z"/></g>
<g><path style="opacity:0.455" fill="#1d231e" d="M 694.5,639.5 C 693.471,642.891 691.471,645.557 688.5,647.5C 690.016,644.467 692.016,641.8 694.5,639.5 Z"/></g>
<g><path style="opacity:0.431" fill="#1b201c" d="M 373.5,630.5 C 371.145,635.88 367.812,640.546 363.5,644.5C 366.345,639.473 369.679,634.806 373.5,630.5 Z"/></g>
<g><path style="opacity:0.431" fill="#1b1f1b" d="M 659.5,641.5 C 661.262,642.262 662.262,643.596 662.5,645.5C 660.738,644.738 659.738,643.404 659.5,641.5 Z"/></g>
<g><path style="opacity:0.412" fill="#1b1f1b" d="M 55.5,643.5 C 57.435,648.573 58.7683,653.906 59.5,659.5C 57.2507,654.503 55.9174,649.17 55.5,643.5 Z"/></g>
<g><path style="opacity:0.514" fill="#1b201b" d="M 363.5,644.5 C 363.573,646.027 362.906,647.027 361.5,647.5C 361.427,645.973 362.094,644.973 363.5,644.5 Z"/></g>
<g><path style="opacity:0.412" fill="#191b19" d="M 662.5,645.5 C 663.906,645.973 664.573,646.973 664.5,648.5C 663.094,648.027 662.427,647.027 662.5,645.5 Z"/></g>
<g><path style="opacity:0.412" fill="#181a18" d="M 336.5,646.5 C 338.587,647.585 339.92,649.251 340.5,651.5C 338.413,650.415 337.08,648.749 336.5,646.5 Z"/></g>
<g><path style="opacity:0.412" fill="#191b19" d="M 664.5,648.5 C 665.906,648.973 666.573,649.973 666.5,651.5C 665.094,651.027 664.427,650.027 664.5,648.5 Z"/></g>
<g><path style="opacity:0.412" fill="#1e241e" d="M 968.5,648.5 C 967.591,655.141 965.924,661.474 963.5,667.5C 964.409,660.859 966.076,654.526 968.5,648.5 Z"/></g>
<g><path style="opacity:0.424" fill="#191c1a" d="M 666.5,651.5 C 668.262,652.262 669.262,653.596 669.5,655.5C 667.738,654.738 666.738,653.404 666.5,651.5 Z"/></g>
<g><path style="opacity:0.765" fill="#273528" d="M 688.5,647.5 C 686.577,650.603 684.41,653.603 682,656.5C 680.871,658.141 679.371,659.141 677.5,659.5C 680.458,654.874 684.124,650.874 688.5,647.5 Z"/></g>
<g><path style="opacity:0.463" fill="#222c23" d="M 669.5,655.5 C 671.463,656.96 673.296,658.627 675,660.5C 675.671,659.748 676.504,659.414 677.5,659.5C 676.686,661.273 675.352,661.773 673.5,661C 671.536,659.549 670.203,657.716 669.5,655.5 Z"/></g>
<g><path style="opacity:0.412" fill="#1b1f1b" d="M 361.5,647.5 C 360.191,650.778 358.358,653.778 356,656.5C 354.093,660.01 351.26,661.176 347.5,660C 344.553,657.564 342.22,654.731 340.5,651.5C 343.512,654.345 346.679,657.012 350,659.5C 354.058,655.72 357.891,651.72 361.5,647.5 Z"/></g>
<g><path style="opacity:0.412" fill="#1b1e1b" d="M 60.5,663.5 C 61.9238,665.515 62.5905,667.848 62.5,670.5C 61.0762,668.485 60.4095,666.152 60.5,663.5 Z"/></g>
<g><path style="opacity:0.412" fill="#1a1e1b" d="M 963.5,667.5 C 963.277,671.162 962.277,674.495 960.5,677.5C 960.723,673.838 961.723,670.505 963.5,667.5 Z"/></g>
<g><path style="opacity:0.412" fill="#1b1f1c" d="M 63.5,673.5 C 66.4054,680.216 68.7387,687.216 70.5,694.5C 67.1937,687.915 64.8604,680.915 63.5,673.5 Z"/></g>
<g><path style="opacity:0.486" fill="#202820" d="M 960.5,677.5 C 960.405,679.786 959.738,681.786 958.5,683.5C 958.259,681.102 958.926,679.102 960.5,677.5 Z"/></g>
<g><path style="opacity:0.412" fill="#1a1d1a" d="M 956.5,689.5 C 956.267,692.542 955.267,695.208 953.5,697.5C 953.733,694.458 954.733,691.792 956.5,689.5 Z"/></g>
<g><path style="opacity:0.412" fill="#1b1f1b" d="M 71.5,697.5 C 72.9313,698.78 73.5979,700.447 73.5,702.5C 72.0687,701.22 71.4021,699.553 71.5,697.5 Z"/></g>
<g><path style="opacity:0.412" fill="#1c211d" d="M 73.5,702.5 C 74.9313,703.78 75.5979,705.447 75.5,707.5C 74.0687,706.22 73.4021,704.553 73.5,702.5 Z"/></g>
<g><path style="opacity:0.412" fill="#1b1f1b" d="M 953.5,697.5 C 953.267,700.542 952.267,703.208 950.5,705.5C 950.733,702.458 951.733,699.792 953.5,697.5 Z"/></g>
<g><path style="opacity:0.412" fill="#1a1d1a" d="M 950.5,705.5 C 950.598,707.553 949.931,709.22 948.5,710.5C 948.402,708.447 949.069,706.78 950.5,705.5 Z"/></g>
<g><path style="opacity:0.412" fill="#1b1f1b" d="M 948.5,710.5 C 948.293,713.241 947.293,715.574 945.5,717.5C 945.707,714.759 946.707,712.426 948.5,710.5 Z"/></g>
<g><path style="opacity:0.412" fill="#1b1f1c" d="M 75.5,707.5 C 77.9308,711.111 79.5975,715.111 80.5,719.5C 78.0692,715.889 76.4025,711.889 75.5,707.5 Z"/></g>
<g><path style="opacity:0.412" fill="#1c201c" d="M 522.5,720.5 C 514.925,716.269 507.592,716.603 500.5,721.5C 503.371,717.818 507.205,716.152 512,716.5C 516.273,716.062 519.773,717.395 522.5,720.5 Z"/></g>
<g><path style="opacity:0.412" fill="#1b201c" d="M 945.5,717.5 C 945.293,720.241 944.293,722.574 942.5,724.5C 942.707,721.759 943.707,719.426 945.5,717.5 Z"/></g>
<g><path style="opacity:0.412" fill="#1b1f1c" d="M 80.5,719.5 C 83.2895,723.416 85.2895,727.749 86.5,732.5C 83.7105,728.584 81.7105,724.251 80.5,719.5 Z"/></g>
<g><path style="opacity:1" fill="#446f48" d="M 499.5,722.5 C 498.833,723.833 497.833,724.833 496.5,725.5C 494.833,721.833 495.833,720.833 499.5,722.5 Z"/></g>
<g><path style="opacity:0.443" fill="#1b201c" d="M 522.5,720.5 C 526.833,722.833 530.167,726.167 532.5,730.5C 528.833,727.5 525.5,724.167 522.5,720.5 Z"/></g>
<g><path style="opacity:0.412" fill="#191b19" d="M 495.5,726.5 C 494.92,728.749 493.587,730.415 491.5,731.5C 492.08,729.251 493.413,727.585 495.5,726.5 Z"/></g>
<g><path style="opacity:0.412" fill="#1a1e1b" d="M 532.5,730.5 C 534.262,731.262 535.262,732.596 535.5,734.5C 533.738,733.738 532.738,732.404 532.5,730.5 Z"/></g>
<g><path style="opacity:0.412" fill="#1a1e1b" d="M 491.5,731.5 C 491.262,733.404 490.262,734.738 488.5,735.5C 488.738,733.596 489.738,732.262 491.5,731.5 Z"/></g>
<g><path style="opacity:0.412" fill="#191c1a" d="M 535.5,734.5 C 537.262,735.262 538.262,736.596 538.5,738.5C 536.738,737.738 535.738,736.404 535.5,734.5 Z"/></g>
<g><path style="opacity:0.412" fill="#181918" d="M 87.5,734.5 C 89.0075,736.181 90.0075,738.181 90.5,740.5C 88.461,739.089 87.461,737.089 87.5,734.5 Z"/></g>
<g><path style="opacity:0.412" fill="#1a1d1a" d="M 488.5,735.5 C 487.567,738.37 485.9,740.704 483.5,742.5C 484.433,739.63 486.1,737.296 488.5,735.5 Z"/></g>
<g><path style="opacity:0.412" fill="#1a1d1a" d="M 538.5,738.5 C 540.262,739.262 541.262,740.596 541.5,742.5C 539.738,741.738 538.738,740.404 538.5,738.5 Z"/></g>
<g><path style="opacity:0.412" fill="#1b1f1b" d="M 942.5,724.5 C 937.46,737.581 931.127,749.915 923.5,761.5C 929.582,749.002 935.915,736.669 942.5,724.5 Z"/></g>
<g><path style="opacity:0.412" fill="#191b19" d="M 483.5,742.5 C 483.262,744.404 482.262,745.738 480.5,746.5C 480.738,744.596 481.738,743.262 483.5,742.5 Z"/></g>
<g><path style="opacity:0.412" fill="#181918" d="M 480.5,746.5 C 480.262,748.404 479.262,749.738 477.5,750.5C 477.738,748.596 478.738,747.262 480.5,746.5 Z"/></g>
<g><path style="opacity:0.412" fill="#1b1f1b" d="M 541.5,742.5 C 544.471,744.443 546.471,747.109 547.5,750.5C 545.016,748.2 543.016,745.533 541.5,742.5 Z"/></g>
<g><path style="opacity:0.412" fill="#1a1d1a" d="M 477.5,750.5 C 477.262,752.404 476.262,753.738 474.5,754.5C 474.738,752.596 475.738,751.262 477.5,750.5 Z"/></g>
<g><path style="opacity:0.412" fill="#181918" d="M 474.5,754.5 C 474.262,756.404 473.262,757.738 471.5,758.5C 471.738,756.596 472.738,755.262 474.5,754.5 Z"/></g>
<g><path style="opacity:0.412" fill="#1a1d1a" d="M 547.5,750.5 C 550.471,752.443 552.471,755.109 553.5,758.5C 551.016,756.2 549.016,753.533 547.5,750.5 Z"/></g>
<g><path style="opacity:0.412" fill="#191b19" d="M 95.5,750.5 C 97.9236,753.008 99.5903,756.008 100.5,759.5C 98.0764,756.992 96.4097,753.992 95.5,750.5 Z"/></g>
<g><path style="opacity:0.412" fill="#1a1d1a" d="M 471.5,758.5 C 469.6,762.732 466.933,766.399 463.5,769.5C 465.4,765.268 468.067,761.601 471.5,758.5 Z"/></g>
<g><path style="opacity:0.412" fill="#1b1e1b" d="M 553.5,758.5 C 556.933,761.601 559.6,765.268 561.5,769.5C 558.067,766.399 555.4,762.732 553.5,758.5 Z"/></g>
<g><path style="opacity:0.412" fill="#191b19" d="M 100.5,759.5 C 102.588,761.336 103.921,763.669 104.5,766.5C 102.412,764.664 101.079,762.331 100.5,759.5 Z"/></g>
<g><path style="opacity:0.412" fill="#191b19" d="M 923.5,761.5 C 923.25,763.674 922.25,765.341 920.5,766.5C 920.75,764.326 921.75,762.659 923.5,761.5 Z"/></g>
<g><path style="opacity:0.412" fill="#191c19" d="M 920.5,766.5 C 920.573,768.027 919.906,769.027 918.5,769.5C 918.427,767.973 919.094,766.973 920.5,766.5 Z"/></g>
<g><path style="opacity:0.412" fill="#1a1d1a" d="M 104.5,766.5 C 106.25,767.659 107.25,769.326 107.5,771.5C 105.75,770.341 104.75,768.674 104.5,766.5 Z"/></g>
<g><path style="opacity:0.412" fill="#181a18" d="M 463.5,769.5 C 463.262,771.404 462.262,772.738 460.5,773.5C 460.738,771.596 461.738,770.262 463.5,769.5 Z"/></g>
<g><path style="opacity:0.412" fill="#181a18" d="M 561.5,769.5 C 563.262,770.262 564.262,771.596 564.5,773.5C 562.738,772.738 561.738,771.404 561.5,769.5 Z"/></g>
<g><path style="opacity:0.412" fill="#1b1f1b" d="M 918.5,769.5 C 916.618,774.368 913.952,778.701 910.5,782.5C 912.418,777.657 915.084,773.323 918.5,769.5 Z"/></g>
<g><path style="opacity:0.412" fill="#1a1c1a" d="M 107.5,771.5 C 109.25,772.659 110.25,774.326 110.5,776.5C 108.75,775.341 107.75,773.674 107.5,771.5 Z"/></g>
<g><path style="opacity:0.412" fill="#181918" d="M 564.5,773.5 C 566.262,774.262 567.262,775.596 567.5,777.5C 565.738,776.738 564.738,775.404 564.5,773.5 Z"/></g>
<g><path style="opacity:0.412" fill="#1a1d1a" d="M 460.5,773.5 C 460.262,775.404 459.262,776.738 457.5,777.5C 457.738,775.596 458.738,774.262 460.5,773.5 Z"/></g>
<g><path style="opacity:0.412" fill="#191c1a" d="M 457.5,777.5 C 457.262,779.404 456.262,780.738 454.5,781.5C 454.738,779.596 455.738,778.262 457.5,777.5 Z"/></g>
<g><path style="opacity:0.412" fill="#191c19" d="M 567.5,777.5 C 569.262,778.262 570.262,779.596 570.5,781.5C 568.738,780.738 567.738,779.404 567.5,777.5 Z"/></g>
<g><path style="opacity:0.412" fill="#1b1f1b" d="M 110.5,776.5 C 112.95,778.629 114.617,781.296 115.5,784.5C 113.05,782.371 111.383,779.704 110.5,776.5 Z"/></g>
<g><path style="opacity:0.412" fill="#191c19" d="M 570.5,781.5 C 572.262,782.262 573.262,783.596 573.5,785.5C 571.738,784.738 570.738,783.404 570.5,781.5 Z"/></g>
<g><path style="opacity:0.412" fill="#191b19" d="M 115.5,784.5 C 116.906,784.973 117.573,785.973 117.5,787.5C 116.094,787.027 115.427,786.027 115.5,784.5 Z"/></g>
<g><path style="opacity:0.412" fill="#191b19" d="M 910.5,782.5 C 910.155,785.198 908.822,787.198 906.5,788.5C 907.34,786.147 908.674,784.147 910.5,782.5 Z"/></g>
<g><path style="opacity:0.412" fill="#181918" d="M 573.5,785.5 C 575.262,786.262 576.262,787.596 576.5,789.5C 574.738,788.738 573.738,787.404 573.5,785.5 Z"/></g>
<g><path style="opacity:0.412" fill="#1a1e1b" d="M 117.5,787.5 C 118.906,787.973 119.573,788.973 119.5,790.5C 118.094,790.027 117.427,789.027 117.5,787.5 Z"/></g>
<g><path style="opacity:0.412" fill="#1a1c1a" d="M 454.5,781.5 C 451.564,787.041 447.897,792.041 443.5,796.5C 446.436,790.959 450.103,785.959 454.5,781.5 Z"/></g>
<g><path style="opacity:0.412" fill="#191c19" d="M 906.5,788.5 C 906.573,790.027 905.906,791.027 904.5,791.5C 904.427,789.973 905.094,788.973 906.5,788.5 Z"/></g>
<g><path style="opacity:0.412" fill="#1a1d1a" d="M 576.5,789.5 C 578.262,790.262 579.262,791.596 579.5,793.5C 577.738,792.738 576.738,791.404 576.5,789.5 Z"/></g>
<g><path style="opacity:0.412" fill="#1a1e1b" d="M 119.5,790.5 C 120.906,790.973 121.573,791.973 121.5,793.5C 120.094,793.027 119.427,792.027 119.5,790.5 Z"/></g>
<g><path style="opacity:0.412" fill="#1a1d1a" d="M 579.5,793.5 C 581.262,794.262 582.262,795.596 582.5,797.5C 580.738,796.738 579.738,795.404 579.5,793.5 Z"/></g>
<g><path style="opacity:0.412" fill="#1b201c" d="M 904.5,791.5 C 902.237,796.365 899.237,800.698 895.5,804.5C 897.763,799.635 900.763,795.302 904.5,791.5 Z"/></g>
<g><path style="opacity:0.412" fill="#1c201c" d="M 121.5,793.5 C 124.605,796.275 126.938,799.608 128.5,803.5C 125.395,800.725 123.062,797.392 121.5,793.5 Z"/></g>
<g><path style="opacity:0.412" fill="#1a1d1a" d="M 443.5,796.5 C 443.262,798.404 442.262,799.738 440.5,800.5C 440.738,798.596 441.738,797.262 443.5,796.5 Z"/></g>
<g><path style="opacity:0.412" fill="#191b19" d="M 440.5,800.5 C 440.262,802.404 439.262,803.738 437.5,804.5C 437.738,802.596 438.738,801.262 440.5,800.5 Z"/></g>
<g><path style="opacity:0.412" fill="#181a18" d="M 128.5,803.5 C 129.906,803.973 130.573,804.973 130.5,806.5C 129.094,806.027 128.427,805.027 128.5,803.5 Z"/></g>
<g><path style="opacity:0.412" fill="#1a1d1a" d="M 582.5,797.5 C 586.262,800.929 589.262,804.929 591.5,809.5C 587.738,806.071 584.738,802.071 582.5,797.5 Z"/></g>
<g><path style="opacity:0.412" fill="#1a1d1a" d="M 130.5,806.5 C 132.262,807.262 133.262,808.596 133.5,810.5C 131.738,809.738 130.738,808.404 130.5,806.5 Z"/></g>
<g><path style="opacity:0.412" fill="#1b1f1c" d="M 437.5,804.5 C 437.262,806.404 436.262,807.738 434.5,808.5C 434.738,806.596 435.738,805.262 437.5,804.5 Z"/></g>
<g><path style="opacity:0.412" fill="#1a1c1a" d="M 895.5,804.5 C 894.471,807.891 892.471,810.557 889.5,812.5C 891.016,809.467 893.016,806.8 895.5,804.5 Z"/></g>
<g><path style="opacity:0.412" fill="#1a1d1a" d="M 133.5,810.5 C 135.262,811.262 136.262,812.596 136.5,814.5C 134.738,813.738 133.738,812.404 133.5,810.5 Z"/></g>
<g><path style="opacity:0.412" fill="#181a18" d="M 434.5,808.5 C 434.262,810.404 433.262,811.738 431.5,812.5C 431.738,810.596 432.738,809.262 434.5,808.5 Z"/></g>
<g><path style="opacity:0.412" fill="#1c201c" d="M 591.5,809.5 C 594.933,812.601 597.6,816.268 599.5,820.5C 596.067,817.399 593.4,813.732 591.5,809.5 Z"/></g>
<g><path style="opacity:0.412" fill="#191b19" d="M 136.5,814.5 C 138.262,815.262 139.262,816.596 139.5,818.5C 137.738,817.738 136.738,816.404 136.5,814.5 Z"/></g>
<g><path style="opacity:0.412" fill="#1b1f1b" d="M 889.5,812.5 C 888.92,814.749 887.587,816.415 885.5,817.5C 886.08,815.251 887.413,813.585 889.5,812.5 Z"/></g>
<g><path style="opacity:0.412" fill="#1a1d1a" d="M 431.5,812.5 C 430.471,815.891 428.471,818.557 425.5,820.5C 427.016,817.467 429.016,814.8 431.5,812.5 Z"/></g>
<g><path style="opacity:0.412" fill="#1a1d1a" d="M 885.5,817.5 C 885.262,819.404 884.262,820.738 882.5,821.5C 882.738,819.596 883.738,818.262 885.5,817.5 Z"/></g>
<g><path style="opacity:0.412" fill="#1a1d1a" d="M 599.5,820.5 C 601.262,821.262 602.262,822.596 602.5,824.5C 600.738,823.738 599.738,822.404 599.5,820.5 Z"/></g>
<g><path style="opacity:0.412" fill="#1b1e1b" d="M 139.5,818.5 C 142.645,821.46 145.312,824.793 147.5,828.5C 143.874,825.905 141.208,822.572 139.5,818.5 Z"/></g>
<g><path style="opacity:0.412" fill="#1a1d1a" d="M 425.5,820.5 C 425.262,822.404 424.262,823.738 422.5,824.5C 422.738,822.596 423.738,821.262 425.5,820.5 Z"/></g>
<g><path style="opacity:0.412" fill="#1a1d1a" d="M 602.5,824.5 C 604.262,825.262 605.262,826.596 605.5,828.5C 603.738,827.738 602.738,826.404 602.5,824.5 Z"/></g>
<g><path style="opacity:0.412" fill="#1b1f1c" d="M 881.5,822.5 C 880.92,824.749 879.587,826.415 877.5,827.5C 878.08,825.251 879.413,823.585 881.5,822.5 Z"/></g>
<g><path style="opacity:0.412" fill="#1a1e1b" d="M 422.5,824.5 C 419.564,830.041 415.897,835.041 411.5,839.5C 414.436,833.959 418.103,828.959 422.5,824.5 Z"/></g>
<g><path style="opacity:0.412" fill="#1a1c1a" d="M 147.5,828.5 C 149.587,829.585 150.92,831.251 151.5,833.5C 149.413,832.415 148.08,830.749 147.5,828.5 Z"/></g>
<g><path style="opacity:0.412" fill="#1a1d1a" d="M 877.5,827.5 C 876.581,830.089 874.914,832.089 872.5,833.5C 873.419,830.911 875.086,828.911 877.5,827.5 Z"/></g>
<g><path style="opacity:0.412" fill="#1b1f1b" d="M 151.5,833.5 C 154.243,835.239 156.243,837.573 157.5,840.5C 154.757,838.761 152.757,836.427 151.5,833.5 Z"/></g>
<g><path style="opacity:0.412" fill="#1b1f1b" d="M 605.5,828.5 C 609.262,831.929 612.262,835.929 614.5,840.5C 610.738,837.071 607.738,833.071 605.5,828.5 Z"/></g>
<g><path style="opacity:0.412" fill="#1b201c" d="M 871.5,834.5 C 870.581,837.089 868.914,839.089 866.5,840.5C 867.419,837.911 869.086,835.911 871.5,834.5 Z"/></g>
<g><path style="opacity:0.412" fill="#1a1d1a" d="M 411.5,839.5 C 409.984,842.533 407.984,845.2 405.5,847.5C 406.529,844.109 408.529,841.443 411.5,839.5 Z"/></g>
<g><path style="opacity:0.412" fill="#1c201c" d="M 159.5,842.5 C 162.573,844.569 164.906,847.236 166.5,850.5C 163.427,848.431 161.094,845.764 159.5,842.5 Z"/></g>
<g><path style="opacity:0.412" fill="#1b1e1b" d="M 614.5,840.5 C 618.897,844.959 622.564,849.959 625.5,855.5C 621.103,851.041 617.436,846.041 614.5,840.5 Z"/></g>
<g><path style="opacity:0.412" fill="#1b1f1c" d="M 866.5,840.5 C 864.234,844.436 861.234,847.769 857.5,850.5C 859.766,846.564 862.766,843.231 866.5,840.5 Z"/></g>
<g><path style="opacity:0.412" fill="#191b19" d="M 405.5,847.5 C 405.262,849.404 404.262,850.738 402.5,851.5C 402.738,849.596 403.738,848.262 405.5,847.5 Z"/></g>
<g><path style="opacity:0.824" fill="#2b3c2c" d="M 166.5,850.5 C 167.833,850.5 168.5,851.167 168.5,852.5C 167.5,852.167 166.833,851.5 166.5,850.5 Z"/></g>
<g><path style="opacity:0.412" fill="#191b19" d="M 168.5,852.5 C 177.5,860.833 186.167,869.5 194.5,878.5C 185.588,871.093 177.088,863.093 169,854.5C 168.536,853.906 168.369,853.239 168.5,852.5 Z"/></g>
<g><path style="opacity:0.412" fill="#191c19" d="M 402.5,851.5 C 402.262,853.404 401.262,854.738 399.5,855.5C 399.738,853.596 400.738,852.262 402.5,851.5 Z"/></g>
<g><path style="opacity:0.412" fill="#191b19" d="M 399.5,855.5 C 398.471,858.891 396.471,861.557 393.5,863.5C 395.016,860.467 397.016,857.8 399.5,855.5 Z"/></g>
<g><path style="opacity:0.412" fill="#181918" d="M 856.5,851.5 C 849.093,860.412 841.093,868.912 832.5,877C 831.906,877.464 831.239,877.631 830.5,877.5C 838.833,868.5 847.5,859.833 856.5,851.5 Z"/></g>
<g><path style="opacity:0.412" fill="#191c1a" d="M 625.5,855.5 C 628.471,857.443 630.471,860.109 631.5,863.5C 629.016,861.2 627.016,858.533 625.5,855.5 Z"/></g>
<g><path style="opacity:0.412" fill="#181a18" d="M 631.5,863.5 C 633.262,864.262 634.262,865.596 634.5,867.5C 632.738,866.738 631.738,865.404 631.5,863.5 Z"/></g>
<g><path style="opacity:0.412" fill="#1a1d1a" d="M 393.5,863.5 C 393.262,865.404 392.262,866.738 390.5,867.5C 390.738,865.596 391.738,864.262 393.5,863.5 Z"/></g>
<g><path style="opacity:0.412" fill="#191a19" d="M 634.5,867.5 C 636.262,868.262 637.262,869.596 637.5,871.5C 635.738,870.738 634.738,869.404 634.5,867.5 Z"/></g>
<g><path style="opacity:0.412" fill="#1b1f1b" d="M 390.5,867.5 C 390.262,869.404 389.262,870.738 387.5,871.5C 387.738,869.596 388.738,868.262 390.5,867.5 Z"/></g>
<g><path style="opacity:0.412" fill="#181a18" d="M 637.5,871.5 C 639.262,872.262 640.262,873.596 640.5,875.5C 638.738,874.738 637.738,873.404 637.5,871.5 Z"/></g>
<g><path style="opacity:0.412" fill="#1a1e1b" d="M 387.5,871.5 C 385.984,874.533 383.984,877.2 381.5,879.5C 382.529,876.109 384.529,873.443 387.5,871.5 Z"/></g>
<g><path style="opacity:0.412" fill="#191c19" d="M 640.5,875.5 C 642.262,876.262 643.262,877.596 643.5,879.5C 641.738,878.738 640.738,877.404 640.5,875.5 Z"/></g>
<g><path style="opacity:0.412" fill="#1a1c1a" d="M 643.5,879.5 C 645.262,880.262 646.262,881.596 646.5,883.5C 644.738,882.738 643.738,881.404 643.5,879.5 Z"/></g>
<g><path style="opacity:0.412" fill="#191b19" d="M 381.5,879.5 C 381.262,881.404 380.262,882.738 378.5,883.5C 378.738,881.596 379.738,880.262 381.5,879.5 Z"/></g>
<g><path style="opacity:0.412" fill="#1c211c" d="M 194.5,878.5 C 198.436,880.766 201.769,883.766 204.5,887.5C 200.564,885.234 197.231,882.234 194.5,878.5 Z"/></g>
<g><path style="opacity:0.412" fill="#191c1a" d="M 646.5,883.5 C 648.262,884.262 649.262,885.596 649.5,887.5C 647.738,886.738 646.738,885.404 646.5,883.5 Z"/></g>
<g><path style="opacity:0.412" fill="#191a19" d="M 829.5,878.5 C 827.1,881.903 824.1,884.57 820.5,886.5C 822.9,883.097 825.9,880.43 829.5,878.5 Z"/></g>
<g><path style="opacity:0.412" fill="#191c1a" d="M 378.5,883.5 C 378.262,885.404 377.262,886.738 375.5,887.5C 375.738,885.596 376.738,884.262 378.5,883.5 Z"/></g>
<g><path style="opacity:0.412" fill="#1b1f1b" d="M 649.5,887.5 C 651.262,888.262 652.262,889.596 652.5,891.5C 650.738,890.738 649.738,889.404 649.5,887.5 Z"/></g>
<g><path style="opacity:0.412" fill="#191b19" d="M 375.5,887.5 C 375.262,889.404 374.262,890.738 372.5,891.5C 372.738,889.596 373.738,888.262 375.5,887.5 Z"/></g>
<g><path style="opacity:0.412" fill="#181918" d="M 819.5,887.5 C 818.089,889.914 816.089,891.581 813.5,892.5C 814.911,890.086 816.911,888.419 819.5,887.5 Z"/></g>
<g><path style="opacity:0.424" fill="#1b1f1b" d="M 204.5,887.5 C 207.089,888.419 209.089,890.086 210.5,892.5C 207.911,891.581 205.911,889.914 204.5,887.5 Z"/></g>
<g><path style="opacity:0.412" fill="#181a18" d="M 372.5,891.5 C 372.262,893.404 371.262,894.738 369.5,895.5C 369.738,893.596 370.738,892.262 372.5,891.5 Z"/></g>
<g><path style="opacity:0.412" fill="#1a1d1a" d="M 652.5,891.5 C 654.262,892.262 655.262,893.596 655.5,895.5C 653.738,894.738 652.738,893.404 652.5,891.5 Z"/></g>
<g><path style="opacity:0.412" fill="#1c201c" d="M 210.5,892.5 C 214.878,895.359 218.878,898.692 222.5,902.5C 217.752,900.118 213.752,896.784 210.5,892.5 Z"/></g>
<g><path style="opacity:0.412" fill="#1a1d1a" d="M 655.5,895.5 C 657.262,896.262 658.262,897.596 658.5,899.5C 656.738,898.738 655.738,897.404 655.5,895.5 Z"/></g>
<g><path style="opacity:0.412" fill="#1a1d1a" d="M 813.5,892.5 C 810.393,896.215 806.727,899.215 802.5,901.5C 805.607,897.785 809.273,894.785 813.5,892.5 Z"/></g>
<g><path style="opacity:0.412" fill="#191b19" d="M 369.5,895.5 C 369.262,897.404 368.262,898.738 366.5,899.5C 366.738,897.596 367.738,896.262 369.5,895.5 Z"/></g>
<g><path style="opacity:0.412" fill="#1a1e1b" d="M 658.5,899.5 C 660.262,900.262 661.262,901.596 661.5,903.5C 659.738,902.738 658.738,901.404 658.5,899.5 Z"/></g>
<g><path style="opacity:0.412" fill="#1a1e1b" d="M 366.5,899.5 C 366.262,901.404 365.262,902.738 363.5,903.5C 363.738,901.596 364.738,900.262 366.5,899.5 Z"/></g>
<g><path style="opacity:0.431" fill="#1b1f1b" d="M 222.5,902.5 C 224.404,902.738 225.738,903.738 226.5,905.5C 224.596,905.262 223.262,904.262 222.5,902.5 Z"/></g>
<g><path style="opacity:0.412" fill="#191b19" d="M 661.5,903.5 C 663.262,904.262 664.262,905.596 664.5,907.5C 662.738,906.738 661.738,905.404 661.5,903.5 Z"/></g>
<g><path style="opacity:0.412" fill="#1a1e1b" d="M 363.5,903.5 C 361.984,906.533 359.984,909.2 357.5,911.5C 358.529,908.109 360.529,905.443 363.5,903.5 Z"/></g>
<g><path style="opacity:0.486" fill="#1c221d" d="M 226.5,905.5 C 228.404,905.738 229.738,906.738 230.5,908.5C 228.596,908.262 227.262,907.262 226.5,905.5 Z"/></g>
<g><path style="opacity:0.412" fill="#1b1e1b" d="M 802.5,901.5 C 799.071,905.262 795.071,908.262 790.5,910.5C 793.929,906.738 797.929,903.738 802.5,901.5 Z"/></g>
<g><path style="opacity:0.412" fill="#181a19" d="M 664.5,907.5 C 666.262,908.262 667.262,909.596 667.5,911.5C 665.738,910.738 664.738,909.404 664.5,907.5 Z"/></g>
<g><path style="opacity:0.494" fill="#1e241e" d="M 230.5,908.5 C 232.404,908.738 233.738,909.738 234.5,911.5C 232.596,911.262 231.262,910.262 230.5,908.5 Z"/></g>
<g><path style="opacity:0.412" fill="#191b19" d="M 667.5,911.5 C 669.262,912.262 670.262,913.596 670.5,915.5C 668.738,914.738 667.738,913.404 667.5,911.5 Z"/></g>
<g><path style="opacity:0.412" fill="#191b19" d="M 790.5,910.5 C 789.738,912.262 788.404,913.262 786.5,913.5C 787.262,911.738 788.596,910.738 790.5,910.5 Z"/></g>
<g><path style="opacity:0.486" fill="#1d231d" d="M 234.5,911.5 C 236.404,911.738 237.738,912.738 238.5,914.5C 236.596,914.262 235.262,913.262 234.5,911.5 Z"/></g>
<g><path style="opacity:0.412" fill="#181a18" d="M 357.5,911.5 C 357.262,913.404 356.262,914.738 354.5,915.5C 354.738,913.596 355.738,912.262 357.5,911.5 Z"/></g>
<g><path style="opacity:0.412" fill="#171717" d="M 786.5,913.5 C 786.027,914.906 785.027,915.573 783.5,915.5C 783.973,914.094 784.973,913.427 786.5,913.5 Z"/></g>
<g><path style="opacity:0.412" fill="#191b19" d="M 238.5,914.5 C 240.027,914.427 241.027,915.094 241.5,916.5C 239.973,916.573 238.973,915.906 238.5,914.5 Z"/></g>
<g><path style="opacity:0.412" fill="#191b19" d="M 354.5,915.5 C 354.262,917.404 353.262,918.738 351.5,919.5C 351.738,917.596 352.738,916.262 354.5,915.5 Z"/></g>
<g><path style="opacity:0.412" fill="#191c19" d="M 670.5,915.5 C 672.262,916.262 673.262,917.596 673.5,919.5C 671.738,918.738 670.738,917.404 670.5,915.5 Z"/></g>
<g><path style="opacity:0.412" fill="#1a1d1a" d="M 783.5,915.5 C 779.049,919.61 774.049,922.944 768.5,925.5C 772.976,921.425 777.976,918.092 783.5,915.5 Z"/></g>
<g><path style="opacity:0.424" fill="#1a1e1b" d="M 241.5,916.5 C 244.37,917.433 246.704,919.1 248.5,921.5C 245.63,920.567 243.296,918.9 241.5,916.5 Z"/></g>
<g><path style="opacity:0.412" fill="#191b19" d="M 351.5,919.5 C 351.262,921.404 350.262,922.738 348.5,923.5C 348.738,921.596 349.738,920.262 351.5,919.5 Z"/></g>
<g><path style="opacity:0.412" fill="#181918" d="M 248.5,921.5 C 250.027,921.427 251.027,922.094 251.5,923.5C 249.973,923.573 248.973,922.906 248.5,921.5 Z"/></g>
<g><path style="opacity:0.412" fill="#1a1d1a" d="M 673.5,919.5 C 675.984,921.8 677.984,924.467 679.5,927.5C 676.529,925.557 674.529,922.891 673.5,919.5 Z"/></g>
<g><path style="opacity:0.412" fill="#181918" d="M 348.5,923.5 C 348.262,925.404 347.262,926.738 345.5,927.5C 345.738,925.596 346.738,924.262 348.5,923.5 Z"/></g>
<g><path style="opacity:0.412" fill="#191b19" d="M 251.5,923.5 C 253.027,923.427 254.027,924.094 254.5,925.5C 252.973,925.573 251.973,924.906 251.5,923.5 Z"/></g>
<g><path style="opacity:0.412" fill="#181a19" d="M 768.5,925.5 C 768.027,926.906 767.027,927.573 765.5,927.5C 765.973,926.094 766.973,925.427 768.5,925.5 Z"/></g>
<g><path style="opacity:0.412" fill="#1a1d1a" d="M 679.5,927.5 C 681.262,928.262 682.262,929.596 682.5,931.5C 680.738,930.738 679.738,929.404 679.5,927.5 Z"/></g>
<g><path style="opacity:0.412" fill="#1a1d1b" d="M 254.5,925.5 C 257.704,926.383 260.371,928.05 262.5,930.5C 259.296,929.617 256.629,927.95 254.5,925.5 Z"/></g>
<g><path style="opacity:0.412" fill="#191b19" d="M 765.5,927.5 C 763.371,929.95 760.704,931.617 757.5,932.5C 759.629,930.05 762.296,928.383 765.5,927.5 Z"/></g>
<g><path style="opacity:0.412" fill="#1a1c1a" d="M 262.5,930.5 C 264.674,930.75 266.341,931.75 267.5,933.5C 265.326,933.25 263.659,932.25 262.5,930.5 Z"/></g>
<g><path style="opacity:0.412" fill="#1a1e1b" d="M 345.5,927.5 C 343.984,930.533 341.984,933.2 339.5,935.5C 340.529,932.109 342.529,929.443 345.5,927.5 Z"/></g>
<g><path style="opacity:0.412" fill="#1a1e1b" d="M 682.5,931.5 C 684.262,932.262 685.262,933.596 685.5,935.5C 683.738,934.738 682.738,933.404 682.5,931.5 Z"/></g>
<g><path style="opacity:0.412" fill="#191b19" d="M 757.5,932.5 C 756.341,934.25 754.674,935.25 752.5,935.5C 753.659,933.75 755.326,932.75 757.5,932.5 Z"/></g>
<g><path style="opacity:0.412" fill="#1c211c" d="M 267.5,933.5 C 269.674,933.75 271.341,934.75 272.5,936.5C 270.326,936.25 268.659,935.25 267.5,933.5 Z"/></g>
<g><path style="opacity:0.412" fill="#181818" d="M 339.5,935.5 C 338.92,937.749 337.587,939.415 335.5,940.5C 336.08,938.251 337.413,936.585 339.5,935.5 Z"/></g>
<g><path style="opacity:0.412" fill="#1a1d1a" d="M 752.5,935.5 C 750.664,937.588 748.331,938.921 745.5,939.5C 747.336,937.412 749.669,936.079 752.5,935.5 Z"/></g>
<g><path style="opacity:0.412" fill="#1c201c" d="M 272.5,936.5 C 274.674,936.75 276.341,937.75 277.5,939.5C 275.326,939.25 273.659,938.25 272.5,936.5 Z"/></g>
<g><path style="opacity:0.412" fill="#1a1d1a" d="M 685.5,935.5 C 688.933,938.601 691.6,942.268 693.5,946.5C 690.067,943.399 687.4,939.732 685.5,935.5 Z"/></g>
<g><path style="opacity:0.412" fill="#1b1f1b" d="M 279.5,940.5 C 283.655,941.742 287.322,943.742 290.5,946.5C 286.388,945.278 282.721,943.278 279.5,940.5 Z"/></g>
<g><path style="opacity:0.412" fill="#1b1f1b" d="M 743.5,940.5 C 740.992,942.924 737.992,944.59 734.5,945.5C 737.008,943.076 740.008,941.41 743.5,940.5 Z"/></g>
<g><path style="opacity:0.412" fill="#1b1e1b" d="M 335.5,940.5 C 332.89,946.405 328.89,951.072 323.5,954.5C 327.51,949.793 331.51,945.126 335.5,940.5 Z"/></g>
<g><path style="opacity:0.412" fill="#1c201c" d="M 693.5,946.5 C 695.587,947.585 696.92,949.251 697.5,951.5C 695.413,950.415 694.08,948.749 693.5,946.5 Z"/></g>
<g><path style="opacity:0.412" fill="#181a19" d="M 290.5,946.5 C 292.153,946.66 293.486,947.326 294.5,948.5C 292.62,948.771 291.287,948.104 290.5,946.5 Z"/></g>
<g><path style="opacity:0.412" fill="#181918" d="M 728.5,948.5 C 726.421,950.873 723.754,952.206 720.5,952.5C 722.849,950.659 725.515,949.326 728.5,948.5 Z"/></g>
<g><path style="opacity:0.412" fill="#1c211c" d="M 298.5,950.5 C 302.787,951.648 306.787,953.315 310.5,955.5C 305.983,954.903 301.983,953.237 298.5,950.5 Z"/></g>
<g><path style="opacity:0.412" fill="#222c23" d="M 697.5,951.5 C 699.777,952.449 701.777,953.782 703.5,955.5C 700.708,955.378 698.708,954.044 697.5,951.5 Z"/></g>
<g><path style="opacity:0.412" fill="#1c211c" d="M 323.5,954.5 C 321.898,956.074 319.898,956.741 317.5,956.5C 319.214,955.262 321.214,954.595 323.5,954.5 Z"/></g>
</svg>
